<svg xmlns="http://www.w3.org/2000/svg" xmlns:xlink="http://www.w3.org/1999/xlink" contentStyleType="text/css" data-diagram-type="CLASS" height="974px" preserveAspectRatio="none" style="width:958px;height:974px;background:#FFFFFF;" version="1.1" viewBox="0 0 958 974" width="958px" zoomAndPan="magnify"><title>Class Diagram - Nkwa CLI Financial Tracker</title><defs/><g><g class="title" data-source-line="1"><text fill="#000000" font-family="sans-serif" font-size="14" font-weight="bold" lengthAdjust="spacing" textLength="341.8789" x="301.0723" y="22.9951">Class Diagram - Nkwa CLI Financial Tracker</text></g><!--class Expenditure--><g class="entity" data-entity="Expenditure" data-source-line="3" data-uid="ent0002" id="entity_Expenditure"><rect fill="#F1F1F1" height="162.0781" rx="2.5" ry="2.5" style="stroke:#181818;stroke-width:0.5;" width="183.9238" x="131.5" y="582.2969"/><ellipse cx="176.7061" cy="598.2969" fill="#ADD1B2" rx="11" ry="11" style="stroke:#181818;stroke-width:1;"/><path d="M179.6748,603.9375 Q179.0967,604.2344 178.4561,604.375 Q177.8154,604.5313 177.1123,604.5313 Q174.6123,604.5313 173.2842,602.8906 Q171.9717,601.2344 171.9717,598.1094 Q171.9717,594.9844 173.2842,593.3281 Q174.6123,591.6719 177.1123,591.6719 Q177.8154,591.6719 178.4561,591.8281 Q179.1123,591.9844 179.6748,592.2813 L179.6748,595 Q179.0498,594.4219 178.4561,594.1563 Q177.8623,593.875 177.2373,593.875 Q175.8936,593.875 175.2061,594.9531 Q174.5186,596.0156 174.5186,598.1094 Q174.5186,600.2031 175.2061,601.2813 Q175.8936,602.3438 177.2373,602.3438 Q177.8623,602.3438 178.4561,602.0781 Q179.0498,601.7969 179.6748,601.2188 L179.6748,603.9375 Z " fill="#000000"/><text fill="#000000" font-family="sans-serif" font-size="14" lengthAdjust="spacing" textLength="85.0117" x="197.2061" y="603.1436">Expenditure</text><line style="stroke:#181818;stroke-width:0.5;" x1="132.5" x2="314.4238" y1="614.2969" y2="614.2969"/><rect fill="none" height="6" style="stroke:#C82930;stroke-width:1;" width="6" x="139.5" y="624.9453"/><text fill="#000000" font-family="sans-serif" font-size="14" lengthAdjust="spacing" textLength="84.7109" x="151.5" y="631.292">code: String</text><rect fill="none" height="6" style="stroke:#C82930;stroke-width:1;" width="6" x="139.5" y="641.2422"/><text fill="#000000" font-family="sans-serif" font-size="14" lengthAdjust="spacing" textLength="94.6367" x="151.5" y="647.5889">amount: float</text><rect fill="none" height="6" style="stroke:#C82930;stroke-width:1;" width="6" x="139.5" y="657.5391"/><text fill="#000000" font-family="sans-serif" font-size="14" lengthAdjust="spacing" textLength="82.5166" x="151.5" y="663.8857">date: String</text><rect fill="none" height="6" style="stroke:#C82930;stroke-width:1;" width="6" x="139.5" y="673.8359"/><text fill="#000000" font-family="sans-serif" font-size="14" lengthAdjust="spacing" textLength="93.1943" x="151.5" y="680.1826">phase: String</text><rect fill="none" height="6" style="stroke:#C82930;stroke-width:1;" width="6" x="139.5" y="690.1328"/><text fill="#000000" font-family="sans-serif" font-size="14" lengthAdjust="spacing" textLength="112.8203" x="151.5" y="696.4795">category: String</text><rect fill="none" height="6" style="stroke:#C82930;stroke-width:1;" width="6" x="139.5" y="706.4297"/><text fill="#000000" font-family="sans-serif" font-size="14" lengthAdjust="spacing" textLength="155.1826" x="151.5" y="712.7764">bankAccountId: String</text><line style="stroke:#181818;stroke-width:0.5;" x1="132.5" x2="314.4238" y1="720.0781" y2="720.0781"/><ellipse cx="142.5" cy="733.7266" fill="#84BE84" rx="3" ry="3" style="stroke:#038048;stroke-width:1;"/><text fill="#000000" font-family="sans-serif" font-size="14" lengthAdjust="spacing" textLength="157.9238" x="151.5" y="737.0732">get_summary(): String</text></g><!--class BankAccount--><g class="entity" data-entity="BankAccount" data-source-line="13" data-uid="ent0003" id="entity_BankAccount"><rect fill="#F1F1F1" height="145.7813" rx="2.5" ry="2.5" style="stroke:#181818;stroke-width:0.5;" width="296.6416" x="7" y="821.2969"/><ellipse cx="105.1025" cy="837.2969" fill="#ADD1B2" rx="11" ry="11" style="stroke:#181818;stroke-width:1;"/><path d="M108.0713,842.9375 Q107.4932,843.2344 106.8525,843.375 Q106.2119,843.5313 105.5088,843.5313 Q103.0088,843.5313 101.6807,841.8906 Q100.3682,840.2344 100.3682,837.1094 Q100.3682,833.9844 101.6807,832.3281 Q103.0088,830.6719 105.5088,830.6719 Q106.2119,830.6719 106.8525,830.8281 Q107.5088,830.9844 108.0713,831.2813 L108.0713,834 Q107.4463,833.4219 106.8525,833.1563 Q106.2588,832.875 105.6338,832.875 Q104.29,832.875 103.6025,833.9531 Q102.915,835.0156 102.915,837.1094 Q102.915,839.2031 103.6025,840.2813 Q104.29,841.3438 105.6338,841.3438 Q106.2588,841.3438 106.8525,841.0781 Q107.4463,840.7969 108.0713,840.2188 L108.0713,842.9375 Z " fill="#000000"/><text fill="#000000" font-family="sans-serif" font-size="14" lengthAdjust="spacing" textLength="91.9365" x="125.6025" y="842.1436">BankAccount</text><line style="stroke:#181818;stroke-width:0.5;" x1="8" x2="302.6416" y1="853.2969" y2="853.2969"/><rect fill="none" height="6" style="stroke:#C82930;stroke-width:1;" width="6" x="15" y="863.9453"/><text fill="#000000" font-family="sans-serif" font-size="14" lengthAdjust="spacing" textLength="119.7383" x="27" y="870.292">accountId: String</text><rect fill="none" height="6" style="stroke:#C82930;stroke-width:1;" width="6" x="15" y="880.2422"/><text fill="#000000" font-family="sans-serif" font-size="14" lengthAdjust="spacing" textLength="148.0254" x="27" y="886.5889">accountName: String</text><rect fill="none" height="6" style="stroke:#C82930;stroke-width:1;" width="6" x="15" y="896.5391"/><text fill="#000000" font-family="sans-serif" font-size="14" lengthAdjust="spacing" textLength="95.7373" x="27" y="902.8857">balance: float</text><rect fill="none" height="6" style="stroke:#C82930;stroke-width:1;" width="6" x="15" y="912.8359"/><text fill="#000000" font-family="sans-serif" font-size="14" lengthAdjust="spacing" textLength="234.1855" x="27" y="919.1826">expenditures: List&lt;Expenditure&gt;</text><line style="stroke:#181818;stroke-width:0.5;" x1="8" x2="302.6416" y1="926.4844" y2="926.4844"/><ellipse cx="18" cy="940.1328" fill="#84BE84" rx="3" ry="3" style="stroke:#038048;stroke-width:1;"/><text fill="#000000" font-family="sans-serif" font-size="14" lengthAdjust="spacing" textLength="136.6504" x="27" y="943.4795">get_balance(): float</text><ellipse cx="18" cy="956.4297" fill="#84BE84" rx="3" ry="3" style="stroke:#038048;stroke-width:1;"/><text fill="#000000" font-family="sans-serif" font-size="14" lengthAdjust="spacing" textLength="270.6416" x="27" y="959.7764">add_expenditure(e: Expenditure): void</text></g><!--class Category--><g class="entity" data-entity="Category" data-source-line="22" data-uid="ent0004" id="entity_Category"><rect fill="#F1F1F1" height="80.5938" rx="2.5" ry="2.5" style="stroke:#181818;stroke-width:0.5;" width="127.7119" x="342.5" y="853.7969"/><ellipse cx="371.7928" cy="869.7969" fill="#ADD1B2" rx="11" ry="11" style="stroke:#181818;stroke-width:1;"/><path d="M374.7615,875.4375 Q374.1834,875.7344 373.5428,875.875 Q372.9021,876.0313 372.199,876.0313 Q369.699,876.0313 368.3709,874.3906 Q367.0584,872.7344 367.0584,869.6094 Q367.0584,866.4844 368.3709,864.8281 Q369.699,863.1719 372.199,863.1719 Q372.9021,863.1719 373.5428,863.3281 Q374.199,863.4844 374.7615,863.7813 L374.7615,866.5 Q374.1365,865.9219 373.5428,865.6563 Q372.949,865.375 372.324,865.375 Q370.9803,865.375 370.2928,866.4531 Q369.6053,867.5156 369.6053,869.6094 Q369.6053,871.7031 370.2928,872.7813 Q370.9803,873.8438 372.324,873.8438 Q372.949,873.8438 373.5428,873.5781 Q374.1365,873.2969 374.7615,872.7188 L374.7615,875.4375 Z " fill="#000000"/><text fill="#000000" font-family="sans-serif" font-size="14" lengthAdjust="spacing" textLength="63.9502" x="388.9689" y="874.6436">Category</text><line style="stroke:#181818;stroke-width:0.5;" x1="343.5" x2="469.2119" y1="885.7969" y2="885.7969"/><rect fill="none" height="6" style="stroke:#C82930;stroke-width:1;" width="6" x="350.5" y="896.4453"/><text fill="#000000" font-family="sans-serif" font-size="14" lengthAdjust="spacing" textLength="90.6514" x="362.5" y="902.792">name: String</text><line style="stroke:#181818;stroke-width:0.5;" x1="343.5" x2="469.2119" y1="910.0938" y2="910.0938"/><ellipse cx="353.5" cy="923.7422" fill="#84BE84" rx="3" ry="3" style="stroke:#038048;stroke-width:1;"/><text fill="#000000" font-family="sans-serif" font-size="14" lengthAdjust="spacing" textLength="101.7119" x="362.5" y="927.0889">is_valid(): bool</text></g><!--class Receipt--><g class="entity" data-entity="Receipt" data-source-line="27" data-uid="ent0005" id="entity_Receipt"><rect fill="#F1F1F1" height="113.1875" rx="2.5" ry="2.5" style="stroke:#181818;stroke-width:0.5;" width="171.9678" x="130.5" y="392.2969"/><ellipse cx="185.7754" cy="408.2969" fill="#ADD1B2" rx="11" ry="11" style="stroke:#181818;stroke-width:1;"/><path d="M188.7441,413.9375 Q188.166,414.2344 187.5254,414.375 Q186.8848,414.5313 186.1816,414.5313 Q183.6816,414.5313 182.3535,412.8906 Q181.041,411.2344 181.041,408.1094 Q181.041,404.9844 182.3535,403.3281 Q183.6816,401.6719 186.1816,401.6719 Q186.8848,401.6719 187.5254,401.8281 Q188.1816,401.9844 188.7441,402.2813 L188.7441,405 Q188.1191,404.4219 187.5254,404.1563 Q186.9316,403.875 186.3066,403.875 Q184.9629,403.875 184.2754,404.9531 Q183.5879,406.0156 183.5879,408.1094 Q183.5879,410.2031 184.2754,411.2813 Q184.9629,412.3438 186.3066,412.3438 Q186.9316,412.3438 187.5254,412.0781 Q188.1191,411.7969 188.7441,411.2188 L188.7441,413.9375 Z " fill="#000000"/><text fill="#000000" font-family="sans-serif" font-size="14" lengthAdjust="spacing" textLength="52.917" x="206.2754" y="413.1436">Receipt</text><line style="stroke:#181818;stroke-width:0.5;" x1="131.5" x2="301.4678" y1="424.2969" y2="424.2969"/><rect fill="none" height="6" style="stroke:#C82930;stroke-width:1;" width="6" x="138.5" y="434.9453"/><text fill="#000000" font-family="sans-serif" font-size="14" lengthAdjust="spacing" textLength="112.9092" x="150.5" y="441.292">receiptId: String</text><rect fill="none" height="6" style="stroke:#C82930;stroke-width:1;" width="6" x="138.5" y="451.2422"/><text fill="#000000" font-family="sans-serif" font-size="14" lengthAdjust="spacing" textLength="145.9678" x="150.5" y="457.5889">expenseCode: String</text><rect fill="none" height="6" style="stroke:#C82930;stroke-width:1;" width="6" x="138.5" y="467.5391"/><text fill="#000000" font-family="sans-serif" font-size="14" lengthAdjust="spacing" textLength="103.6533" x="150.5" y="473.8857">filePath: String</text><rect fill="none" height="6" style="stroke:#C82930;stroke-width:1;" width="6" x="138.5" y="483.8359"/><text fill="#000000" font-family="sans-serif" font-size="14" lengthAdjust="spacing" textLength="126.4648" x="150.5" y="490.1826">timestamp: String</text><line style="stroke:#181818;stroke-width:0.5;" x1="131.5" x2="301.4678" y1="497.4844" y2="497.4844"/></g><!--class ReceiptHandler--><g class="entity" data-entity="ReceiptHandler" data-source-line="34" data-uid="ent0006" id="entity_ReceiptHandler"><rect fill="#F1F1F1" height="113.1875" rx="2.5" ry="2.5" style="stroke:#181818;stroke-width:0.5;" width="247.1836" x="80" y="202.2969"/><ellipse cx="145.3208" cy="218.2969" fill="#ADD1B2" rx="11" ry="11" style="stroke:#181818;stroke-width:1;"/><path d="M148.2896,223.9375 Q147.7114,224.2344 147.0708,224.375 Q146.4302,224.5313 145.7271,224.5313 Q143.2271,224.5313 141.8989,222.8906 Q140.5864,221.2344 140.5864,218.1094 Q140.5864,214.9844 141.8989,213.3281 Q143.2271,211.6719 145.7271,211.6719 Q146.4302,211.6719 147.0708,211.8281 Q147.7271,211.9844 148.2896,212.2813 L148.2896,215 Q147.6646,214.4219 147.0708,214.1563 Q146.4771,213.875 145.8521,213.875 Q144.5083,213.875 143.8208,214.9531 Q143.1333,216.0156 143.1333,218.1094 Q143.1333,220.2031 143.8208,221.2813 Q144.5083,222.3438 145.8521,222.3438 Q146.4771,222.3438 147.0708,222.0781 Q147.6646,221.7969 148.2896,221.2188 L148.2896,223.9375 Z " fill="#000000"/><text fill="#000000" font-family="sans-serif" font-size="14" lengthAdjust="spacing" textLength="108.042" x="165.8208" y="223.1436">ReceiptHandler</text><line style="stroke:#181818;stroke-width:0.5;" x1="81" x2="326.1836" y1="234.2969" y2="234.2969"/><rect fill="none" height="6" style="stroke:#C82930;stroke-width:1;" width="6" x="88" y="244.9453"/><text fill="#000000" font-family="sans-serif" font-size="14" lengthAdjust="spacing" textLength="161.4717" x="100" y="251.292">stack: Stack&lt;Receipt&gt;</text><rect fill="none" height="6" style="stroke:#C82930;stroke-width:1;" width="6" x="88" y="261.2422"/><text fill="#000000" font-family="sans-serif" font-size="14" lengthAdjust="spacing" textLength="175.3965" x="100" y="267.5889">queue: Queue&lt;Receipt&gt;</text><line style="stroke:#181818;stroke-width:0.5;" x1="81" x2="326.1836" y1="274.8906" y2="274.8906"/><ellipse cx="91" cy="288.5391" fill="#84BE84" rx="3" ry="3" style="stroke:#038048;stroke-width:1;"/><text fill="#000000" font-family="sans-serif" font-size="14" lengthAdjust="spacing" textLength="221.1836" x="100" y="291.8857">upload_receipt(r: Receipt): void</text><ellipse cx="91" cy="304.8359" fill="#84BE84" rx="3" ry="3" style="stroke:#038048;stroke-width:1;"/><text fill="#000000" font-family="sans-serif" font-size="14" lengthAdjust="spacing" textLength="157.876" x="100" y="308.1826">review_next(): Receipt</text></g><!--class CLIHandler--><g class="entity" data-entity="CLIHandler" data-source-line="41" data-uid="ent0007" id="entity_CLIHandler"><rect fill="#F1F1F1" height="80.5938" rx="2.5" ry="2.5" style="stroke:#181818;stroke-width:0.5;" width="172.4258" x="329.5" y="44.2969"/><ellipse cx="373.1185" cy="60.2969" fill="#ADD1B2" rx="11" ry="11" style="stroke:#181818;stroke-width:1;"/><path d="M376.0873,65.9375 Q375.5091,66.2344 374.8685,66.375 Q374.2279,66.5313 373.5248,66.5313 Q371.0248,66.5313 369.6966,64.8906 Q368.3841,63.2344 368.3841,60.1094 Q368.3841,56.9844 369.6966,55.3281 Q371.0248,53.6719 373.5248,53.6719 Q374.2279,53.6719 374.8685,53.8281 Q375.5248,53.9844 376.0873,54.2813 L376.0873,57 Q375.4623,56.4219 374.8685,56.1563 Q374.2748,55.875 373.6498,55.875 Q372.306,55.875 371.6185,56.9531 Q370.931,58.0156 370.931,60.1094 Q370.931,62.2031 371.6185,63.2813 Q372.306,64.3438 373.6498,64.3438 Q374.2748,64.3438 374.8685,64.0781 Q375.4623,63.7969 376.0873,63.2188 L376.0873,65.9375 Z " fill="#000000"/><text fill="#000000" font-family="sans-serif" font-size="14" lengthAdjust="spacing" textLength="76.8291" x="393.4782" y="65.1436">CLIHandler</text><line style="stroke:#181818;stroke-width:0.5;" x1="330.5" x2="500.9258" y1="76.2969" y2="76.2969"/><line style="stroke:#181818;stroke-width:0.5;" x1="330.5" x2="500.9258" y1="84.2969" y2="84.2969"/><ellipse cx="340.5" cy="97.9453" fill="#84BE84" rx="3" ry="3" style="stroke:#038048;stroke-width:1;"/><text fill="#000000" font-family="sans-serif" font-size="14" lengthAdjust="spacing" textLength="146.4258" x="349.5" y="101.292">display_menu(): void</text><ellipse cx="340.5" cy="114.2422" fill="#84BE84" rx="3" ry="3" style="stroke:#038048;stroke-width:1;"/><text fill="#000000" font-family="sans-serif" font-size="14" lengthAdjust="spacing" textLength="140.4443" x="349.5" y="117.5889">handle_input(): void</text></g><!--class AnalyticsModule--><g class="entity" data-entity="AnalyticsModule" data-source-line="46" data-uid="ent0008" id="entity_AnalyticsModule"><rect fill="#F1F1F1" height="96.8906" rx="2.5" ry="2.5" style="stroke:#181818;stroke-width:0.5;" width="263.9043" x="504.5" y="210.2969"/><ellipse cx="574.9614" cy="226.2969" fill="#ADD1B2" rx="11" ry="11" style="stroke:#181818;stroke-width:1;"/><path d="M577.9302,231.9375 Q577.3521,232.2344 576.7114,232.375 Q576.0708,232.5313 575.3677,232.5313 Q572.8677,232.5313 571.5396,230.8906 Q570.2271,229.2344 570.2271,226.1094 Q570.2271,222.9844 571.5396,221.3281 Q572.8677,219.6719 575.3677,219.6719 Q576.0708,219.6719 576.7114,219.8281 Q577.3677,219.9844 577.9302,220.2813 L577.9302,223 Q577.3052,222.4219 576.7114,222.1563 Q576.1177,221.875 575.4927,221.875 Q574.1489,221.875 573.4614,222.9531 Q572.7739,224.0156 572.7739,226.1094 Q572.7739,228.2031 573.4614,229.2813 Q574.1489,230.3438 575.4927,230.3438 Q576.1177,230.3438 576.7114,230.0781 Q577.3052,229.7969 577.9302,229.2188 L577.9302,231.9375 Z " fill="#000000"/><text fill="#000000" font-family="sans-serif" font-size="14" lengthAdjust="spacing" textLength="114.4814" x="595.4614" y="231.1436">AnalyticsModule</text><line style="stroke:#181818;stroke-width:0.5;" x1="505.5" x2="767.4043" y1="242.2969" y2="242.2969"/><line style="stroke:#181818;stroke-width:0.5;" x1="505.5" x2="767.4043" y1="250.2969" y2="250.2969"/><ellipse cx="515.5" cy="263.9453" fill="#84BE84" rx="3" ry="3" style="stroke:#038048;stroke-width:1;"/><text fill="#000000" font-family="sans-serif" font-size="14" lengthAdjust="spacing" textLength="218.8525" x="524.5" y="267.292">calculate_monthly_burn(): float</text><ellipse cx="515.5" cy="280.2422" fill="#84BE84" rx="3" ry="3" style="stroke:#038048;stroke-width:1;"/><text fill="#000000" font-family="sans-serif" font-size="14" lengthAdjust="spacing" textLength="225.0254" x="524.5" y="283.5889">generate_cost_analysis(): String</text><ellipse cx="515.5" cy="296.5391" fill="#84BE84" rx="3" ry="3" style="stroke:#038048;stroke-width:1;"/><text fill="#000000" font-family="sans-serif" font-size="14" lengthAdjust="spacing" textLength="237.9043" x="524.5" y="299.8857">get_affordability_insights(): String</text></g><!--class FileManager--><g class="entity" data-entity="FileManager" data-source-line="52" data-uid="ent0009" id="entity_FileManager"><rect fill="#F1F1F1" height="80.5938" rx="2.5" ry="2.5" style="stroke:#181818;stroke-width:0.5;" width="147.0234" x="804" y="218.2969"/><ellipse cx="832.1454" cy="234.2969" fill="#ADD1B2" rx="11" ry="11" style="stroke:#181818;stroke-width:1;"/><path d="M835.1141,239.9375 Q834.536,240.2344 833.8954,240.375 Q833.2547,240.5313 832.5516,240.5313 Q830.0516,240.5313 828.7235,238.8906 Q827.411,237.2344 827.411,234.1094 Q827.411,230.9844 828.7235,229.3281 Q830.0516,227.6719 832.5516,227.6719 Q833.2547,227.6719 833.8954,227.8281 Q834.5516,227.9844 835.1141,228.2813 L835.1141,231 Q834.4891,230.4219 833.8954,230.1563 Q833.3016,229.875 832.6766,229.875 Q831.3329,229.875 830.6454,230.9531 Q829.9579,232.0156 829.9579,234.1094 Q829.9579,236.2031 830.6454,237.2813 Q831.3329,238.3438 832.6766,238.3438 Q833.3016,238.3438 833.8954,238.0781 Q834.4891,237.7969 835.1141,237.2188 L835.1141,239.9375 Z " fill="#000000"/><text fill="#000000" font-family="sans-serif" font-size="14" lengthAdjust="spacing" textLength="85.8115" x="849.0666" y="239.1436">FileManager</text><line style="stroke:#181818;stroke-width:0.5;" x1="805" x2="950.0234" y1="250.2969" y2="250.2969"/><line style="stroke:#181818;stroke-width:0.5;" x1="805" x2="950.0234" y1="258.2969" y2="258.2969"/><ellipse cx="815" cy="271.9453" fill="#84BE84" rx="3" ry="3" style="stroke:#038048;stroke-width:1;"/><text fill="#000000" font-family="sans-serif" font-size="14" lengthAdjust="spacing" textLength="118.1729" x="824" y="275.292">load_data(): void</text><ellipse cx="815" cy="288.2422" fill="#84BE84" rx="3" ry="3" style="stroke:#038048;stroke-width:1;"/><text fill="#000000" font-family="sans-serif" font-size="14" lengthAdjust="spacing" textLength="121.0234" x="824" y="291.5889">save_data(): void</text></g><!--link Expenditure to Category--><g class="link" data-entity-1="Expenditure" data-entity-2="Category" data-source-line="58" data-uid="lnk10" id="link_Expenditure_Category"><path codeLine="58" d="M287.5,744.3869 C317.09,781.4069 347.1441,819.0298 371.1441,849.0598" fill="none" id="Expenditure-to-Category" style="stroke:#181818;stroke-width:1;"/><polygon fill="#181818" points="374.89,853.7469,372.3959,844.2191,371.7684,849.841,366.1465,849.2136,374.89,853.7469" style="stroke:#181818;stroke-width:1;"/><text fill="#000000" font-family="sans-serif" font-size="13" lengthAdjust="spacing" textLength="29.7832" x="321.5" y="787.3638">uses</text></g><!--link Expenditure to BankAccount--><g class="link" data-entity-1="Expenditure" data-entity-2="BankAccount" data-source-line="59" data-uid="lnk11" id="link_Expenditure_BankAccount"><path codeLine="59" d="M199.72,744.3869 C192.29,769.4069 185.8492,791.0955 178.5892,815.5255" fill="none" id="Expenditure-to-BankAccount" style="stroke:#181818;stroke-width:1;"/><polygon fill="#181818" points="176.88,821.2769,183.278,813.7892,178.3043,816.484,175.6095,811.5103,176.88,821.2769" style="stroke:#181818;stroke-width:1;"/><text fill="#000000" font-family="sans-serif" font-size="13" lengthAdjust="spacing" textLength="68.2627" x="190.5" y="787.3638">belongs to</text></g><!--link BankAccount to Expenditure--><g class="link" data-entity-1="BankAccount" data-entity-2="Expenditure" data-source-line="60" data-uid="lnk12" id="link_BankAccount_Expenditure"><path codeLine="60" d="M145.69,821.2369 C145.58,805.5169 147.07,789.1569 151.5,774.2969 C154.5,764.2369 156.007,759.5732 160.957,749.9432" fill="none" id="BankAccount-to-Expenditure" style="stroke:#181818;stroke-width:1;"/><polygon fill="#181818" points="163.7,744.6069,156.028,750.7827,161.4142,749.0538,163.1431,754.44,163.7,744.6069" style="stroke:#181818;stroke-width:1;"/><text fill="#000000" font-family="sans-serif" font-size="13" lengthAdjust="spacing" textLength="26.5903" x="152.5" y="787.3638">logs</text></g><!--link Receipt to Expenditure--><g class="link" data-entity-1="Receipt" data-entity-2="Expenditure" data-source-line="61" data-uid="lnk13" id="link_Receipt_Expenditure"><path codeLine="61" d="M218.33,505.3469 C219.1,528.8369 219.8235,550.6501 220.6635,576.2801" fill="none" id="Receipt-to-Expenditure" style="stroke:#181818;stroke-width:1;"/><polygon fill="#181818" points="220.86,582.2769,224.563,573.1507,220.6962,577.2796,216.5673,573.4127,220.86,582.2769" style="stroke:#181818;stroke-width:1;"/><text fill="#000000" font-family="sans-serif" font-size="13" lengthAdjust="spacing" textLength="56.4243" x="221.5" y="548.3638">linked to</text></g><!--link ReceiptHandler to Receipt--><g class="link" data-entity-1="ReceiptHandler" data-entity-2="Receipt" data-source-line="62" data-uid="lnk14" id="link_ReceiptHandler_Receipt"><path codeLine="62" d="M207.35,315.4369 C209.02,339.6969 210.5776,362.0711 212.2476,386.3111" fill="none" id="ReceiptHandler-to-Receipt" style="stroke:#181818;stroke-width:1;"/><polygon fill="#181818" points="212.66,392.2969,216.032,383.0432,212.3163,387.3087,208.0509,383.5931,212.66,392.2969" style="stroke:#181818;stroke-width:1;"/><text fill="#000000" font-family="sans-serif" font-size="13" lengthAdjust="spacing" textLength="59.8584" x="211.5" y="358.3638">manages</text></g><!--link CLIHandler to AnalyticsModule--><g class="link" data-entity-1="CLIHandler" data-entity-2="AnalyticsModule" data-source-line="63" data-uid="lnk15" id="link_CLIHandler_AnalyticsModule"><path codeLine="63" d="M466.48,125.4769 C498.86,150.6769 536.2147,179.7522 570.4247,206.3722" fill="none" id="CLIHandler-to-AnalyticsModule" style="stroke:#181818;stroke-width:1;"/><polygon fill="#181818" points="575.16,210.0569,570.5135,201.373,571.2139,206.9863,565.6006,207.6867,575.16,210.0569" style="stroke:#181818;stroke-width:1;"/><text fill="#000000" font-family="sans-serif" font-size="13" lengthAdjust="spacing" textLength="29.7832" x="527.5" y="168.3638">uses</text></g><!--link CLIHandler to FileManager--><g class="link" data-entity-1="CLIHandler" data-entity-2="FileManager" data-source-line="64" data-uid="lnk16" id="link_CLIHandler_FileManager"><path codeLine="64" d="M501.75,106.7169 C578.14,126.6869 691.74,159.9869 785.5,202.2969 C795.79,206.9369 801.1364,209.5172 811.2664,215.2872" fill="none" id="CLIHandler-to-FileManager" style="stroke:#181818;stroke-width:1;"/><polygon fill="#181818" points="816.48,218.2569,810.6394,210.3267,812.1354,215.7822,806.6799,217.2782,816.48,218.2569" style="stroke:#181818;stroke-width:1;"/><text fill="#000000" font-family="sans-serif" font-size="13" lengthAdjust="spacing" textLength="29.7832" x="708.5" y="168.3638">uses</text></g><!--link CLIHandler to ReceiptHandler--><g class="link" data-entity-1="CLIHandler" data-entity-2="ReceiptHandler" data-source-line="65" data-uid="lnk17" id="link_CLIHandler_ReceiptHandler"><path codeLine="65" d="M362.05,125.3169 C349.31,134.9769 335.83,145.3869 323.5,155.2969 C304.92,170.2269 289.6705,182.948 271.6105,198.388" fill="none" id="CLIHandler-to-ReceiptHandler" style="stroke:#181818;stroke-width:1;"/><polygon fill="#181818" points="267.05,202.2869,276.4901,199.4788,270.8504,199.0378,271.2915,193.3981,267.05,202.2869" style="stroke:#181818;stroke-width:1;"/><text fill="#000000" font-family="sans-serif" font-size="13" lengthAdjust="spacing" textLength="29.7832" x="324.5" y="168.3638">uses</text></g><!--link CLIHandler to BankAccount--><g class="link" data-entity-1="CLIHandler" data-entity-2="BankAccount" data-source-line="66" data-uid="lnk18" id="link_CLIHandler_BankAccount"><path codeLine="66" d="M329.17,87.3669 C214.57,94.5469 26.5,126.3569 26.5,257.7969 C26.5,257.7969 26.5,257.7969 26.5,664.2969 C26.5,722.0169 54.3993,773.8174 86.2693,816.2974" fill="none" id="CLIHandler-to-BankAccount" style="stroke:#181818;stroke-width:1;"/><polygon fill="#181818" points="89.87,821.0969,87.6686,811.4972,86.8694,817.0973,81.2693,816.2982,89.87,821.0969" style="stroke:#181818;stroke-width:1;"/><text fill="#000000" font-family="sans-serif" font-size="13" lengthAdjust="spacing" textLength="59.8584" x="27.5" y="453.3638">manages</text></g><!--link CLIHandler to Category--><g class="link" data-entity-1="CLIHandler" data-entity-2="Category" data-source-line="67" data-uid="lnk19" id="link_CLIHandler_Category"><path codeLine="67" d="M428.7,125.6169 C438.98,160.1669 451.5,211.7269 451.5,257.7969 C451.5,257.7969 451.5,257.7969 451.5,664.2969 C451.5,731.7569 434.1514,802.5802 420.8414,847.8802" fill="none" id="CLIHandler-to-Category" style="stroke:#181818;stroke-width:1;"/><polygon fill="#181818" points="419.15,853.6369,425.5249,846.1295,420.5595,848.8397,417.8494,843.8743,419.15,853.6369" style="stroke:#181818;stroke-width:1;"/><text fill="#000000" font-family="sans-serif" font-size="13" lengthAdjust="spacing" textLength="59.8584" x="452.5" y="453.3638">manages</text></g><!--link CLIHandler to Expenditure--><g class="link" data-entity-1="CLIHandler" data-entity-2="Expenditure" data-source-line="68" data-uid="lnk20" id="link_CLIHandler_Expenditure"><path codeLine="68" d="M408.1,125.5969 C390.96,216.2669 347.87,435.6769 319.5,505.2969 C308.83,531.4769 297.2208,553.2207 282.4608,577.1407" fill="none" id="CLIHandler-to-Expenditure" style="stroke:#181818;stroke-width:1;"/><polygon fill="#181818" points="279.31,582.2469,287.4403,576.6882,281.9356,577.9918,280.6321,572.4872,279.31,582.2469" style="stroke:#181818;stroke-width:1;"/><text fill="#000000" font-family="sans-serif" font-size="13" lengthAdjust="spacing" textLength="59.8584" x="364.5" y="358.3638">manages</text></g><!--SRC=[TPFTZjem48NlUGfhRqg5U06qGjhIheh4hlft7mtsa8nmxDHZinjLVVVQQG9EWAieus-EpnpRdhn6iT70B3uJb0vgiHIlnpSGczrMF9C18mcq-EL07j7DPh9ZlxmtQ1Jvu53ycOdO8wt2bVZf7PcoAq1jW_4hST0MV5THuCT8Km6FAp8YfNNjgBW7StoICibjLRQo42NwWaDTWsld7yyhVmUNdowDlKku8NEklaADaurr71_p6V0oEA_4ZjW_PbcipwxwrkHgQ5u8KAh81EPHEMkEwCcIkjZVz67qtitOta8G5oVGfD8cUslrfVC7IgHc6Dhz_viCtHbXt4pFxK0Qlu6lHaLFDRA7khaEkT_hAnYbqVLRHbOU4ni_ZpsnxbP-1mnnm-_fawyiH6XYKAhetSxTQf0UWacGmnFXMs7mtQUnUoBBRBVDdIo48cuqj4MD9inpfQh32Z9DyFEhx9yCwDQJv1UhWiPUJ8AMGSTZAMfhVANROX-S6HzoYGPTGgHbNq3IOUBiUWvN10u7wnJiIPDlem-cil9ywnu_noDvYKhbUQekgVYUO3GImmd7rIZn8OOKBPCrN573i_pfBfVhoorRYOV0o0zNHFwC8hH7RKt9mjk7MRwKqBmrejgMKM-uZRS0CaTKdTJa7YLuQ8nWtOqVnR83JiZqdCv3JBWymdlCnC4zR1B7FMTvhlUOIHe3zWy0]--></g></svg>