<svg xmlns="http://www.w3.org/2000/svg" xmlns:xlink="http://www.w3.org/1999/xlink" contentStyleType="text/css" data-diagram-type="CLASS" height="545px" preserveAspectRatio="none" style="width:2129px;height:545px;background:#FFFFFF;" version="1.1" viewBox="0 0 2129 545" width="2129px" zoomAndPan="magnify"><title>Data Structure UML for Nkwa Financial Tracker</title><defs/><g><g class="title" data-source-line="1"><text fill="#000000" font-family="sans-serif" font-size="14" font-weight="bold" lengthAdjust="spacing" textLength="372.6953" x="871.3896" y="22.9951">Data Structure UML for Nkwa Financial Tracker</text></g><!--class Expenditure--><g class="entity" data-entity="Expenditure" data-source-line="4" data-uid="ent0002" id="entity_Expenditure"><rect fill="#F1F1F1" height="145.7813" rx="2.5" ry="2.5" style="stroke:#181818;stroke-width:0.5;" width="145.7383" x="426" y="392.2969"/><ellipse cx="453.927" cy="408.2969" fill="#ADD1B2" rx="11" ry="11" style="stroke:#181818;stroke-width:1;"/><path d="M456.8957,413.9375 Q456.3176,414.2344 455.677,414.375 Q455.0363,414.5313 454.3332,414.5313 Q451.8332,414.5313 450.5051,412.8906 Q449.1926,411.2344 449.1926,408.1094 Q449.1926,404.9844 450.5051,403.3281 Q451.8332,401.6719 454.3332,401.6719 Q455.0363,401.6719 455.677,401.8281 Q456.3332,401.9844 456.8957,402.2813 L456.8957,405 Q456.2707,404.4219 455.677,404.1563 Q455.0832,403.875 454.4582,403.875 Q453.1145,403.875 452.427,404.9531 Q451.7395,406.0156 451.7395,408.1094 Q451.7395,410.2031 452.427,411.2813 Q453.1145,412.3438 454.4582,412.3438 Q455.0832,412.3438 455.677,412.0781 Q456.2707,411.7969 456.8957,411.2188 L456.8957,413.9375 Z " fill="#000000"/><text fill="#000000" font-family="sans-serif" font-size="14" lengthAdjust="spacing" textLength="85.0117" x="470.7996" y="413.1436">Expenditure</text><line style="stroke:#181818;stroke-width:0.5;" x1="427" x2="570.7383" y1="424.2969" y2="424.2969"/><rect fill="none" height="6" style="stroke:#C82930;stroke-width:1;" width="6" x="434" y="434.9453"/><text fill="#000000" font-family="sans-serif" font-size="14" lengthAdjust="spacing" textLength="84.7109" x="446" y="441.292">code: String</text><rect fill="none" height="6" style="stroke:#C82930;stroke-width:1;" width="6" x="434" y="451.2422"/><text fill="#000000" font-family="sans-serif" font-size="14" lengthAdjust="spacing" textLength="94.6367" x="446" y="457.5889">amount: float</text><rect fill="none" height="6" style="stroke:#C82930;stroke-width:1;" width="6" x="434" y="467.5391"/><text fill="#000000" font-family="sans-serif" font-size="14" lengthAdjust="spacing" textLength="82.5166" x="446" y="473.8857">date: String</text><rect fill="none" height="6" style="stroke:#C82930;stroke-width:1;" width="6" x="434" y="483.8359"/><text fill="#000000" font-family="sans-serif" font-size="14" lengthAdjust="spacing" textLength="93.1943" x="446" y="490.1826">phase: String</text><rect fill="none" height="6" style="stroke:#C82930;stroke-width:1;" width="6" x="434" y="500.1328"/><text fill="#000000" font-family="sans-serif" font-size="14" lengthAdjust="spacing" textLength="112.8203" x="446" y="506.4795">category: String</text><rect fill="none" height="6" style="stroke:#C82930;stroke-width:1;" width="6" x="434" y="516.4297"/><text fill="#000000" font-family="sans-serif" font-size="14" lengthAdjust="spacing" textLength="119.7383" x="446" y="522.7764">accountId: String</text><line style="stroke:#181818;stroke-width:0.5;" x1="427" x2="570.7383" y1="530.0781" y2="530.0781"/></g><!--class ExpenditureManager--><g class="entity" data-entity="ExpenditureManager" data-source-line="13" data-uid="ent0003" id="entity_ExpenditureManager"><rect fill="#F1F1F1" height="113.1875" rx="2.5" ry="2.5" style="stroke:#181818;stroke-width:0.5;" width="306.3555" x="346" y="194.2969"/><ellipse cx="421.7388" cy="210.2969" fill="#ADD1B2" rx="11" ry="11" style="stroke:#181818;stroke-width:1;"/><path d="M424.7075,215.9375 Q424.1294,216.2344 423.4888,216.375 Q422.8481,216.5313 422.145,216.5313 Q419.645,216.5313 418.3169,214.8906 Q417.0044,213.2344 417.0044,210.1094 Q417.0044,206.9844 418.3169,205.3281 Q419.645,203.6719 422.145,203.6719 Q422.8481,203.6719 423.4888,203.8281 Q424.145,203.9844 424.7075,204.2813 L424.7075,207 Q424.0825,206.4219 423.4888,206.1563 Q422.895,205.875 422.27,205.875 Q420.9263,205.875 420.2388,206.9531 Q419.5513,208.0156 419.5513,210.1094 Q419.5513,212.2031 420.2388,213.2813 Q420.9263,214.3438 422.27,214.3438 Q422.895,214.3438 423.4888,214.0781 Q424.0825,213.7969 424.7075,213.2188 L424.7075,215.9375 Z " fill="#000000"/><text fill="#000000" font-family="sans-serif" font-size="14" lengthAdjust="spacing" textLength="146.3779" x="442.2388" y="215.1436">ExpenditureManager</text><line style="stroke:#181818;stroke-width:0.5;" x1="347" x2="651.3555" y1="226.2969" y2="226.2969"/><rect fill="none" height="6" style="stroke:#C82930;stroke-width:1;" width="6" x="354" y="236.9453"/><text fill="#000000" font-family="sans-serif" font-size="14" lengthAdjust="spacing" textLength="280.3555" x="366" y="243.292">expenditures: LinkedList&lt;Expenditure&gt;</text><line style="stroke:#181818;stroke-width:0.5;" x1="347" x2="651.3555" y1="250.5938" y2="250.5938"/><ellipse cx="357" cy="264.2422" fill="#84BE84" rx="3" ry="3" style="stroke:#038048;stroke-width:1;"/><text fill="#000000" font-family="sans-serif" font-size="14" lengthAdjust="spacing" textLength="37.2764" x="366" y="267.5889">add()</text><ellipse cx="357" cy="280.5391" fill="#84BE84" rx="3" ry="3" style="stroke:#038048;stroke-width:1;"/><text fill="#000000" font-family="sans-serif" font-size="14" lengthAdjust="spacing" textLength="57.7363" x="366" y="283.8857">search()</text><ellipse cx="357" cy="296.8359" fill="#84BE84" rx="3" ry="3" style="stroke:#038048;stroke-width:1;"/><text fill="#000000" font-family="sans-serif" font-size="14" lengthAdjust="spacing" textLength="38.0283" x="366" y="300.1826">sort()</text></g><!--class Category--><g class="entity" data-entity="Category" data-source-line="21" data-uid="ent0004" id="entity_Category"><rect fill="#F1F1F1" height="64.2969" rx="2.5" ry="2.5" style="stroke:#181818;stroke-width:0.5;" width="116.6514" x="1035.5" y="52.7969"/><ellipse cx="1059.8155" cy="68.7969" fill="#ADD1B2" rx="11" ry="11" style="stroke:#181818;stroke-width:1;"/><path d="M1062.7843,74.4375 Q1062.2062,74.7344 1061.5655,74.875 Q1060.9249,75.0313 1060.2218,75.0313 Q1057.7218,75.0313 1056.3937,73.3906 Q1055.0812,71.7344 1055.0812,68.6094 Q1055.0812,65.4844 1056.3937,63.8281 Q1057.7218,62.1719 1060.2218,62.1719 Q1060.9249,62.1719 1061.5655,62.3281 Q1062.2218,62.4844 1062.7843,62.7813 L1062.7843,65.5 Q1062.1593,64.9219 1061.5655,64.6563 Q1060.9718,64.375 1060.3468,64.375 Q1059.003,64.375 1058.3155,65.4531 Q1057.628,66.5156 1057.628,68.6094 Q1057.628,70.7031 1058.3155,71.7813 Q1059.003,72.8438 1060.3468,72.8438 Q1060.9718,72.8438 1061.5655,72.5781 Q1062.1593,72.2969 1062.7843,71.7188 L1062.7843,74.4375 Z " fill="#000000"/><text fill="#000000" font-family="sans-serif" font-size="14" lengthAdjust="spacing" textLength="63.9502" x="1075.8856" y="73.6436">Category</text><line style="stroke:#181818;stroke-width:0.5;" x1="1036.5" x2="1151.1514" y1="84.7969" y2="84.7969"/><rect fill="none" height="6" style="stroke:#C82930;stroke-width:1;" width="6" x="1043.5" y="95.4453"/><text fill="#000000" font-family="sans-serif" font-size="14" lengthAdjust="spacing" textLength="90.6514" x="1055.5" y="101.792">name: String</text><line style="stroke:#181818;stroke-width:0.5;" x1="1036.5" x2="1151.1514" y1="109.0938" y2="109.0938"/></g><!--class CategoryManager--><g class="entity" data-entity="CategoryManager" data-source-line="25" data-uid="ent0005" id="entity_CategoryManager"><rect fill="#F1F1F1" height="96.8906" rx="2.5" ry="2.5" style="stroke:#181818;stroke-width:0.5;" width="232.0557" x="1224" y="202.2969"/><ellipse cx="1273.1196" cy="218.2969" fill="#ADD1B2" rx="11" ry="11" style="stroke:#181818;stroke-width:1;"/><path d="M1276.0884,223.9375 Q1275.5103,224.2344 1274.8696,224.375 Q1274.229,224.5313 1273.5259,224.5313 Q1271.0259,224.5313 1269.6978,222.8906 Q1268.3853,221.2344 1268.3853,218.1094 Q1268.3853,214.9844 1269.6978,213.3281 Q1271.0259,211.6719 1273.5259,211.6719 Q1274.229,211.6719 1274.8696,211.8281 Q1275.5259,211.9844 1276.0884,212.2813 L1276.0884,215 Q1275.4634,214.4219 1274.8696,214.1563 Q1274.2759,213.875 1273.6509,213.875 Q1272.3071,213.875 1271.6196,214.9531 Q1270.9321,216.0156 1270.9321,218.1094 Q1270.9321,220.2031 1271.6196,221.2813 Q1272.3071,222.3438 1273.6509,222.3438 Q1274.2759,222.3438 1274.8696,222.0781 Q1275.4634,221.7969 1276.0884,221.2188 L1276.0884,223.9375 Z " fill="#000000"/><text fill="#000000" font-family="sans-serif" font-size="14" lengthAdjust="spacing" textLength="125.3164" x="1293.6196" y="223.1436">CategoryManager</text><line style="stroke:#181818;stroke-width:0.5;" x1="1225" x2="1455.0557" y1="234.2969" y2="234.2969"/><rect fill="none" height="6" style="stroke:#C82930;stroke-width:1;" width="6" x="1232" y="244.9453"/><text fill="#000000" font-family="sans-serif" font-size="14" lengthAdjust="spacing" textLength="206.0557" x="1244" y="251.292">categories: HashSet&lt;String&gt;</text><line style="stroke:#181818;stroke-width:0.5;" x1="1225" x2="1455.0557" y1="258.5938" y2="258.5938"/><ellipse cx="1235" cy="272.2422" fill="#84BE84" rx="3" ry="3" style="stroke:#038048;stroke-width:1;"/><text fill="#000000" font-family="sans-serif" font-size="14" lengthAdjust="spacing" textLength="37.2764" x="1244" y="275.5889">add()</text><ellipse cx="1235" cy="288.5391" fill="#84BE84" rx="3" ry="3" style="stroke:#038048;stroke-width:1;"/><text fill="#000000" font-family="sans-serif" font-size="14" lengthAdjust="spacing" textLength="57.7363" x="1244" y="291.8857">search()</text></g><!--class BankAccount--><g class="entity" data-entity="BankAccount" data-source-line="32" data-uid="ent0006" id="entity_BankAccount"><rect fill="#F1F1F1" height="96.8906" rx="2.5" ry="2.5" style="stroke:#181818;stroke-width:0.5;" width="145.7383" x="1285" y="416.7969"/><ellipse cx="1309.8108" cy="432.7969" fill="#ADD1B2" rx="11" ry="11" style="stroke:#181818;stroke-width:1;"/><path d="M1312.7795,438.4375 Q1312.2014,438.7344 1311.5608,438.875 Q1310.9202,439.0313 1310.217,439.0313 Q1307.717,439.0313 1306.3889,437.3906 Q1305.0764,435.7344 1305.0764,432.6094 Q1305.0764,429.4844 1306.3889,427.8281 Q1307.717,426.1719 1310.217,426.1719 Q1310.9202,426.1719 1311.5608,426.3281 Q1312.217,426.4844 1312.7795,426.7813 L1312.7795,429.5 Q1312.1545,428.9219 1311.5608,428.6563 Q1310.967,428.375 1310.342,428.375 Q1308.9983,428.375 1308.3108,429.4531 Q1307.6233,430.5156 1307.6233,432.6094 Q1307.6233,434.7031 1308.3108,435.7813 Q1308.9983,436.8438 1310.342,436.8438 Q1310.967,436.8438 1311.5608,436.5781 Q1312.1545,436.2969 1312.7795,435.7188 L1312.7795,438.4375 Z " fill="#000000"/><text fill="#000000" font-family="sans-serif" font-size="14" lengthAdjust="spacing" textLength="91.9365" x="1325.991" y="437.6436">BankAccount</text><line style="stroke:#181818;stroke-width:0.5;" x1="1286" x2="1429.7383" y1="448.7969" y2="448.7969"/><rect fill="none" height="6" style="stroke:#C82930;stroke-width:1;" width="6" x="1293" y="459.4453"/><text fill="#000000" font-family="sans-serif" font-size="14" lengthAdjust="spacing" textLength="119.7383" x="1305" y="465.792">accountId: String</text><rect fill="none" height="6" style="stroke:#C82930;stroke-width:1;" width="6" x="1293" y="475.7422"/><text fill="#000000" font-family="sans-serif" font-size="14" lengthAdjust="spacing" textLength="90.6514" x="1305" y="482.0889">name: String</text><rect fill="none" height="6" style="stroke:#C82930;stroke-width:1;" width="6" x="1293" y="492.0391"/><text fill="#000000" font-family="sans-serif" font-size="14" lengthAdjust="spacing" textLength="95.7373" x="1305" y="498.3857">balance: float</text><line style="stroke:#181818;stroke-width:0.5;" x1="1286" x2="1429.7383" y1="505.6875" y2="505.6875"/></g><!--class BankLedger--><g class="entity" data-entity="BankLedger" data-source-line="38" data-uid="ent0007" id="entity_BankLedger"><rect fill="#F1F1F1" height="129.4844" rx="2.5" ry="2.5" style="stroke:#181818;stroke-width:0.5;" width="501.3232" x="687.5" y="186.2969"/><ellipse cx="892.0518" cy="202.2969" fill="#ADD1B2" rx="11" ry="11" style="stroke:#181818;stroke-width:1;"/><path d="M895.0205,207.9375 Q894.4424,208.2344 893.8018,208.375 Q893.1611,208.5313 892.458,208.5313 Q889.958,208.5313 888.6299,206.8906 Q887.3174,205.2344 887.3174,202.1094 Q887.3174,198.9844 888.6299,197.3281 Q889.958,195.6719 892.458,195.6719 Q893.1611,195.6719 893.8018,195.8281 Q894.458,195.9844 895.0205,196.2813 L895.0205,199 Q894.3955,198.4219 893.8018,198.1563 Q893.208,197.875 892.583,197.875 Q891.2393,197.875 890.5518,198.9531 Q889.8643,200.0156 889.8643,202.1094 Q889.8643,204.2031 890.5518,205.2813 Q891.2393,206.3438 892.583,206.3438 Q893.208,206.3438 893.8018,206.0781 Q894.3955,205.7969 895.0205,205.2188 L895.0205,207.9375 Z " fill="#000000"/><text fill="#000000" font-family="sans-serif" font-size="14" lengthAdjust="spacing" textLength="83.7197" x="912.5518" y="207.1436">BankLedger</text><line style="stroke:#181818;stroke-width:0.5;" x1="688.5" x2="1187.8232" y1="218.2969" y2="218.2969"/><rect fill="none" height="6" style="stroke:#C82930;stroke-width:1;" width="6" x="695.5" y="228.9453"/><text fill="#000000" font-family="sans-serif" font-size="14" lengthAdjust="spacing" textLength="303.1328" x="707.5" y="235.292">accounts: HashMap&lt;String, BankAccount&gt;</text><rect fill="none" height="6" style="stroke:#C82930;stroke-width:1;" width="6" x="695.5" y="245.2422"/><text fill="#000000" font-family="sans-serif" font-size="14" lengthAdjust="spacing" textLength="475.3232" x="707.5" y="251.5889">accountExpenditures: HashMap&lt;String, LinkedList&lt;Expenditure&gt;&gt;</text><line style="stroke:#181818;stroke-width:0.5;" x1="688.5" x2="1187.8232" y1="258.8906" y2="258.8906"/><ellipse cx="698.5" cy="272.5391" fill="#84BE84" rx="3" ry="3" style="stroke:#038048;stroke-width:1;"/><text fill="#000000" font-family="sans-serif" font-size="14" lengthAdjust="spacing" textLength="94.0488" x="707.5" y="275.8857">addAccount()</text><ellipse cx="698.5" cy="288.8359" fill="#84BE84" rx="3" ry="3" style="stroke:#038048;stroke-width:1;"/><text fill="#000000" font-family="sans-serif" font-size="14" lengthAdjust="spacing" textLength="117.2773" x="707.5" y="292.1826">logExpenditure()</text><ellipse cx="698.5" cy="305.1328" fill="#84BE84" rx="3" ry="3" style="stroke:#038048;stroke-width:1;"/><text fill="#000000" font-family="sans-serif" font-size="14" lengthAdjust="spacing" textLength="89.749" x="707.5" y="308.4795">getBalance()</text></g><!--class Receipt--><g class="entity" data-entity="Receipt" data-source-line="47" data-uid="ent0008" id="entity_Receipt"><rect fill="#F1F1F1" height="96.8906" rx="2.5" ry="2.5" style="stroke:#181818;stroke-width:0.5;" width="171.9678" x="1910" y="416.7969"/><ellipse cx="1965.2754" cy="432.7969" fill="#ADD1B2" rx="11" ry="11" style="stroke:#181818;stroke-width:1;"/><path d="M1968.2441,438.4375 Q1967.666,438.7344 1967.0254,438.875 Q1966.3848,439.0313 1965.6816,439.0313 Q1963.1816,439.0313 1961.8535,437.3906 Q1960.541,435.7344 1960.541,432.6094 Q1960.541,429.4844 1961.8535,427.8281 Q1963.1816,426.1719 1965.6816,426.1719 Q1966.3848,426.1719 1967.0254,426.3281 Q1967.6816,426.4844 1968.2441,426.7813 L1968.2441,429.5 Q1967.6191,428.9219 1967.0254,428.6563 Q1966.4316,428.375 1965.8066,428.375 Q1964.4629,428.375 1963.7754,429.4531 Q1963.0879,430.5156 1963.0879,432.6094 Q1963.0879,434.7031 1963.7754,435.7813 Q1964.4629,436.8438 1965.8066,436.8438 Q1966.4316,436.8438 1967.0254,436.5781 Q1967.6191,436.2969 1968.2441,435.7188 L1968.2441,438.4375 Z " fill="#000000"/><text fill="#000000" font-family="sans-serif" font-size="14" lengthAdjust="spacing" textLength="52.917" x="1985.7754" y="437.6436">Receipt</text><line style="stroke:#181818;stroke-width:0.5;" x1="1911" x2="2080.9678" y1="448.7969" y2="448.7969"/><rect fill="none" height="6" style="stroke:#C82930;stroke-width:1;" width="6" x="1918" y="459.4453"/><text fill="#000000" font-family="sans-serif" font-size="14" lengthAdjust="spacing" textLength="112.9092" x="1930" y="465.792">receiptId: String</text><rect fill="none" height="6" style="stroke:#C82930;stroke-width:1;" width="6" x="1918" y="475.7422"/><text fill="#000000" font-family="sans-serif" font-size="14" lengthAdjust="spacing" textLength="145.9678" x="1930" y="482.0889">expenseCode: String</text><rect fill="none" height="6" style="stroke:#C82930;stroke-width:1;" width="6" x="1918" y="492.0391"/><text fill="#000000" font-family="sans-serif" font-size="14" lengthAdjust="spacing" textLength="126.4648" x="1930" y="498.3857">timestamp: String</text><line style="stroke:#181818;stroke-width:0.5;" x1="1911" x2="2080.9678" y1="505.6875" y2="505.6875"/></g><!--class ReceiptHandler--><g class="entity" data-entity="ReceiptHandler" data-source-line="53" data-uid="ent0009" id="entity_ReceiptHandler"><rect fill="#F1F1F1" height="113.1875" rx="2.5" ry="2.5" style="stroke:#181818;stroke-width:0.5;" width="252.4746" x="1870" y="194.2969"/><ellipse cx="1937.9663" cy="210.2969" fill="#ADD1B2" rx="11" ry="11" style="stroke:#181818;stroke-width:1;"/><path d="M1940.9351,215.9375 Q1940.3569,216.2344 1939.7163,216.375 Q1939.0757,216.5313 1938.3726,216.5313 Q1935.8726,216.5313 1934.5444,214.8906 Q1933.2319,213.2344 1933.2319,210.1094 Q1933.2319,206.9844 1934.5444,205.3281 Q1935.8726,203.6719 1938.3726,203.6719 Q1939.0757,203.6719 1939.7163,203.8281 Q1940.3726,203.9844 1940.9351,204.2813 L1940.9351,207 Q1940.3101,206.4219 1939.7163,206.1563 Q1939.1226,205.875 1938.4976,205.875 Q1937.1538,205.875 1936.4663,206.9531 Q1935.7788,208.0156 1935.7788,210.1094 Q1935.7788,212.2031 1936.4663,213.2813 Q1937.1538,214.3438 1938.4976,214.3438 Q1939.1226,214.3438 1939.7163,214.0781 Q1940.3101,213.7969 1940.9351,213.2188 L1940.9351,215.9375 Z " fill="#000000"/><text fill="#000000" font-family="sans-serif" font-size="14" lengthAdjust="spacing" textLength="108.042" x="1958.4663" y="215.1436">ReceiptHandler</text><line style="stroke:#181818;stroke-width:0.5;" x1="1871" x2="2121.4746" y1="226.2969" y2="226.2969"/><rect fill="none" height="6" style="stroke:#C82930;stroke-width:1;" width="6" x="1878" y="236.9453"/><text fill="#000000" font-family="sans-serif" font-size="14" lengthAdjust="spacing" textLength="212.0098" x="1890" y="243.292">receiptStack: Stack&lt;Receipt&gt;</text><rect fill="none" height="6" style="stroke:#C82930;stroke-width:1;" width="6" x="1878" y="253.2422"/><text fill="#000000" font-family="sans-serif" font-size="14" lengthAdjust="spacing" textLength="226.4746" x="1890" y="259.5889">receiptQueue: Queue&lt;Receipt&gt;</text><line style="stroke:#181818;stroke-width:0.5;" x1="1871" x2="2121.4746" y1="266.8906" y2="266.8906"/><ellipse cx="1881" cy="280.5391" fill="#84BE84" rx="3" ry="3" style="stroke:#038048;stroke-width:1;"/><text fill="#000000" font-family="sans-serif" font-size="14" lengthAdjust="spacing" textLength="58.6045" x="1890" y="283.8857">upload()</text><ellipse cx="1881" cy="296.8359" fill="#84BE84" rx="3" ry="3" style="stroke:#038048;stroke-width:1;"/><text fill="#000000" font-family="sans-serif" font-size="14" lengthAdjust="spacing" textLength="57.5313" x="1890" y="300.1826">review()</text></g><!--class AlertSystem--><g class="entity" data-entity="AlertSystem" data-source-line="61" data-uid="ent0010" id="entity_AlertSystem"><rect fill="#F1F1F1" height="80.5938" rx="2.5" ry="2.5" style="stroke:#181818;stroke-width:0.5;" width="343.0234" x="1491.5" y="210.2969"/><ellipse cx="1615.9961" cy="226.2969" fill="#ADD1B2" rx="11" ry="11" style="stroke:#181818;stroke-width:1;"/><path d="M1618.9648,231.9375 Q1618.3867,232.2344 1617.7461,232.375 Q1617.1055,232.5313 1616.4023,232.5313 Q1613.9023,232.5313 1612.5742,230.8906 Q1611.2617,229.2344 1611.2617,226.1094 Q1611.2617,222.9844 1612.5742,221.3281 Q1613.9023,219.6719 1616.4023,219.6719 Q1617.1055,219.6719 1617.7461,219.8281 Q1618.4023,219.9844 1618.9648,220.2813 L1618.9648,223 Q1618.3398,222.4219 1617.7461,222.1563 Q1617.1523,221.875 1616.5273,221.875 Q1615.1836,221.875 1614.4961,222.9531 Q1613.8086,224.0156 1613.8086,226.1094 Q1613.8086,228.2031 1614.4961,229.2813 Q1615.1836,230.3438 1616.5273,230.3438 Q1617.1523,230.3438 1617.7461,230.0781 Q1618.3398,229.7969 1618.9648,229.2188 L1618.9648,231.9375 Z " fill="#000000"/><text fill="#000000" font-family="sans-serif" font-size="14" lengthAdjust="spacing" textLength="85.5313" x="1636.4961" y="231.1436">AlertSystem</text><line style="stroke:#181818;stroke-width:0.5;" x1="1492.5" x2="1833.5234" y1="242.2969" y2="242.2969"/><rect fill="none" height="6" style="stroke:#C82930;stroke-width:1;" width="6" x="1499.5" y="252.9453"/><text fill="#000000" font-family="sans-serif" font-size="14" lengthAdjust="spacing" textLength="317.0234" x="1511.5" y="259.292">accountAlerts: PriorityQueue&lt;BankAccount&gt;</text><line style="stroke:#181818;stroke-width:0.5;" x1="1492.5" x2="1833.5234" y1="266.5938" y2="266.5938"/><ellipse cx="1502.5" cy="280.2422" fill="#84BE84" rx="3" ry="3" style="stroke:#038048;stroke-width:1;"/><text fill="#000000" font-family="sans-serif" font-size="14" lengthAdjust="spacing" textLength="121.707" x="1511.5" y="283.5889">checkLowFunds()</text></g><!--class AnalyticsModule--><g class="entity" data-entity="AnalyticsModule" data-source-line="67" data-uid="ent0011" id="entity_AnalyticsModule"><rect fill="#F1F1F1" height="96.8906" rx="2.5" ry="2.5" style="stroke:#181818;stroke-width:0.5;" width="304.3252" x="7" y="202.2969"/><ellipse cx="97.6719" cy="218.2969" fill="#ADD1B2" rx="11" ry="11" style="stroke:#181818;stroke-width:1;"/><path d="M100.6406,223.9375 Q100.0625,224.2344 99.4219,224.375 Q98.7813,224.5313 98.0781,224.5313 Q95.5781,224.5313 94.25,222.8906 Q92.9375,221.2344 92.9375,218.1094 Q92.9375,214.9844 94.25,213.3281 Q95.5781,211.6719 98.0781,211.6719 Q98.7813,211.6719 99.4219,211.8281 Q100.0781,211.9844 100.6406,212.2813 L100.6406,215 Q100.0156,214.4219 99.4219,214.1563 Q98.8281,213.875 98.2031,213.875 Q96.8594,213.875 96.1719,214.9531 Q95.4844,216.0156 95.4844,218.1094 Q95.4844,220.2031 96.1719,221.2813 Q96.8594,222.3438 98.2031,222.3438 Q98.8281,222.3438 99.4219,222.0781 Q100.0156,221.7969 100.6406,221.2188 L100.6406,223.9375 Z " fill="#000000"/><text fill="#000000" font-family="sans-serif" font-size="14" lengthAdjust="spacing" textLength="114.4814" x="118.1719" y="223.1436">AnalyticsModule</text><line style="stroke:#181818;stroke-width:0.5;" x1="8" x2="310.3252" y1="234.2969" y2="234.2969"/><rect fill="none" height="6" style="stroke:#C82930;stroke-width:1;" width="6" x="15" y="244.9453"/><text fill="#000000" font-family="sans-serif" font-size="14" lengthAdjust="spacing" textLength="278.3252" x="27" y="251.292">expenditureArray: Array&lt;Expenditure&gt;</text><line style="stroke:#181818;stroke-width:0.5;" x1="8" x2="310.3252" y1="258.5938" y2="258.5938"/><ellipse cx="18" cy="272.2422" fill="#84BE84" rx="3" ry="3" style="stroke:#038048;stroke-width:1;"/><text fill="#000000" font-family="sans-serif" font-size="14" lengthAdjust="spacing" textLength="138.2021" x="27" y="275.5889">computeBurnRate()</text><ellipse cx="18" cy="288.5391" fill="#84BE84" rx="3" ry="3" style="stroke:#038048;stroke-width:1;"/><text fill="#000000" font-family="sans-serif" font-size="14" lengthAdjust="spacing" textLength="128.6797" x="27" y="291.8857">generateReports()</text></g><!--class CLIHandler--><g class="entity" data-entity="CLIHandler" data-source-line="74" data-uid="ent0012" id="entity_CLIHandler"><rect fill="#F1F1F1" height="80.5938" rx="2.5" ry="2.5" style="stroke:#181818;stroke-width:0.5;" width="125.0732" x="875.5" y="44.2969"/><ellipse cx="897.8099" cy="60.2969" fill="#ADD1B2" rx="11" ry="11" style="stroke:#181818;stroke-width:1;"/><path d="M900.7786,65.9375 Q900.2005,66.2344 899.5599,66.375 Q898.9192,66.5313 898.2161,66.5313 Q895.7161,66.5313 894.388,64.8906 Q893.0755,63.2344 893.0755,60.1094 Q893.0755,56.9844 894.388,55.3281 Q895.7161,53.6719 898.2161,53.6719 Q898.9192,53.6719 899.5599,53.8281 Q900.2161,53.9844 900.7786,54.2813 L900.7786,57 Q900.1536,56.4219 899.5599,56.1563 Q898.9661,55.875 898.3411,55.875 Q896.9974,55.875 896.3099,56.9531 Q895.6224,58.0156 895.6224,60.1094 Q895.6224,62.2031 896.3099,63.2813 Q896.9974,64.3438 898.3411,64.3438 Q898.9661,64.3438 899.5599,64.0781 Q900.1536,63.7969 900.7786,63.2188 L900.7786,65.9375 Z " fill="#000000"/><text fill="#000000" font-family="sans-serif" font-size="14" lengthAdjust="spacing" textLength="76.8291" x="913.4343" y="65.1436">CLIHandler</text><line style="stroke:#181818;stroke-width:0.5;" x1="876.5" x2="999.5732" y1="76.2969" y2="76.2969"/><line style="stroke:#181818;stroke-width:0.5;" x1="876.5" x2="999.5732" y1="84.2969" y2="84.2969"/><ellipse cx="886.5" cy="97.9453" fill="#84BE84" rx="3" ry="3" style="stroke:#038048;stroke-width:1;"/><text fill="#000000" font-family="sans-serif" font-size="14" lengthAdjust="spacing" textLength="99.0732" x="895.5" y="101.292">displayMenu()</text><ellipse cx="886.5" cy="114.2422" fill="#84BE84" rx="3" ry="3" style="stroke:#038048;stroke-width:1;"/><text fill="#000000" font-family="sans-serif" font-size="14" lengthAdjust="spacing" textLength="94.8896" x="895.5" y="117.5889">handleInput()</text></g><!--link ExpenditureManager to Expenditure--><g class="link" data-entity-1="ExpenditureManager" data-entity-2="Expenditure" data-source-line="80" data-uid="lnk13" id="link_ExpenditureManager_Expenditure"><path codeLine="80" d="M499,307.3469 C499,333.2969 499,358.5169 499,386.2469" fill="none" id="ExpenditureManager-to-Expenditure" style="stroke:#181818;stroke-width:1;"/><polygon fill="#181818" points="499,392.2469,503,383.2469,499,387.2469,495,383.2469,499,392.2469" style="stroke:#181818;stroke-width:1;"/></g><!--link BankLedger to BankAccount--><g class="link" data-entity-1="BankLedger" data-entity-2="BankAccount" data-source-line="81" data-uid="lnk14" id="link_BankLedger_BankAccount"><path codeLine="81" d="M1063.73,315.4069 C1135.87,351.9069 1218.556,393.7487 1279.446,424.5487" fill="none" id="BankLedger-to-BankAccount" style="stroke:#181818;stroke-width:1;"/><polygon fill="#181818" points="1284.8,427.2569,1278.5745,419.6252,1280.3383,425,1274.9635,426.7639,1284.8,427.2569" style="stroke:#181818;stroke-width:1;"/></g><!--link BankLedger to Expenditure--><g class="link" data-entity-1="BankLedger" data-entity-2="Expenditure" data-source-line="82" data-uid="lnk15" id="link_BankLedger_Expenditure"><path codeLine="82" d="M806.58,315.4069 C729.79,352.5769 641.1505,395.4826 577.4205,426.3326" fill="none" id="BankLedger-to-Expenditure" style="stroke:#181818;stroke-width:1;"/><polygon fill="#181818" points="572.02,428.9469,581.8636,428.6258,576.5204,426.7683,578.378,421.4251,572.02,428.9469" style="stroke:#181818;stroke-width:1;"/><text fill="#000000" font-family="sans-serif" font-size="13" lengthAdjust="spacing" textLength="59.8584" x="745" y="358.3638">manages</text></g><!--link ReceiptHandler to Receipt--><g class="link" data-entity-1="ReceiptHandler" data-entity-2="Receipt" data-source-line="83" data-uid="lnk16" id="link_ReceiptHandler_Receipt"><path codeLine="83" d="M1996,307.3469 C1996,341.2869 1996,378.2469 1996,410.6369" fill="none" id="ReceiptHandler-to-Receipt" style="stroke:#181818;stroke-width:1;"/><polygon fill="#181818" points="1996,416.6369,2000,407.6369,1996,411.6369,1992,407.6369,1996,416.6369" style="stroke:#181818;stroke-width:1;"/></g><!--link AlertSystem to BankAccount--><g class="link" data-entity-1="AlertSystem" data-entity-2="BankAccount" data-source-line="84" data-uid="lnk17" id="link_AlertSystem_BankAccount"><path codeLine="84" d="M1605.99,291.5169 C1555.04,327.0169 1485.2229,375.6569 1431.1129,413.3569" fill="none" id="AlertSystem-to-BankAccount" style="stroke:#181818;stroke-width:1;"/><polygon fill="#181818" points="1426.19,416.7869,1435.8611,414.9239,1430.2925,413.9286,1431.2878,408.36,1426.19,416.7869" style="stroke:#181818;stroke-width:1;"/></g><!--link AnalyticsModule to Expenditure--><g class="link" data-entity-1="AnalyticsModule" data-entity-2="Expenditure" data-source-line="85" data-uid="lnk18" id="link_AnalyticsModule_Expenditure"><path codeLine="85" d="M235.3,299.4869 C292.28,335.0969 364.5818,380.2872 420.7818,415.4072" fill="none" id="AnalyticsModule-to-Expenditure" style="stroke:#181818;stroke-width:1;"/><polygon fill="#181818" points="425.87,418.5869,420.3575,410.4252,421.6298,415.9372,416.1179,417.2095,425.87,418.5869" style="stroke:#181818;stroke-width:1;"/></g><!--link CLIHandler to ExpenditureManager--><g class="link" data-entity-1="CLIHandler" data-entity-2="ExpenditureManager" data-source-line="86" data-uid="lnk19" id="link_CLIHandler_ExpenditureManager"><path codeLine="86" d="M875.1,109.2969 C815.95,131.3969 730.7606,163.217 653.1906,192.197" fill="none" id="CLIHandler-to-ExpenditureManager" style="stroke:#181818;stroke-width:1;"/><polygon fill="#181818" points="647.57,194.2969,657.4007,194.8942,652.2538,192.547,654.601,187.4001,647.57,194.2969" style="stroke:#181818;stroke-width:1;"/></g><!--link CLIHandler to BankLedger--><g class="link" data-entity-1="CLIHandler" data-entity-2="BankLedger" data-source-line="87" data-uid="lnk20" id="link_CLIHandler_BankLedger"><path codeLine="87" d="M938,125.4969 C938,143.6969 938,159.7269 938,180.1569" fill="none" id="CLIHandler-to-BankLedger" style="stroke:#181818;stroke-width:1;"/><polygon fill="#181818" points="938,186.1569,942,177.1569,938,181.1569,934,177.1569,938,186.1569" style="stroke:#181818;stroke-width:1;"/></g><!--link CLIHandler to CategoryManager--><g class="link" data-entity-1="CLIHandler" data-entity-2="CategoryManager" data-source-line="88" data-uid="lnk21" id="link_CLIHandler_CategoryManager"><path codeLine="88" d="M1000.93,117.9169 C1006.66,120.5269 1012.4,123.0169 1018,125.2969 C1099.37,158.3869 1124.36,153.8669 1206,186.2969 C1218.2,191.1469 1225.3881,194.1156 1237.8381,199.7156" fill="none" id="CLIHandler-to-CategoryManager" style="stroke:#181818;stroke-width:1;"/><polygon fill="#181818" points="1243.31,202.1769,1236.7429,194.837,1238.75,200.1258,1233.4612,202.1329,1243.31,202.1769" style="stroke:#181818;stroke-width:1;"/></g><!--link CLIHandler to ReceiptHandler--><g class="link" data-entity-1="CLIHandler" data-entity-2="ReceiptHandler" data-source-line="89" data-uid="lnk22" id="link_CLIHandler_ReceiptHandler"><path codeLine="89" d="M1000.88,119.5769 C1006.56,121.7969 1012.32,123.7469 1018,125.2969 C1376.6,222.9369 1491.37,96.4469 1852,186.2969 C1860.88,188.5069 1864.2207,189.2916 1873.2007,192.3516" fill="none" id="CLIHandler-to-ReceiptHandler" style="stroke:#181818;stroke-width:1;"/><polygon fill="#181818" points="1878.88,194.2869,1871.6512,187.5978,1874.1472,192.6741,1869.0708,195.1702,1878.88,194.2869" style="stroke:#181818;stroke-width:1;"/></g><!--link CLIHandler to AnalyticsModule--><g class="link" data-entity-1="CLIHandler" data-entity-2="AnalyticsModule" data-source-line="90" data-uid="lnk23" id="link_CLIHandler_AnalyticsModule"><path codeLine="90" d="M875.23,92.0269 C763.69,104.0069 524.23,133.8169 328,186.2969 C311.2,190.7869 299.3998,194.3638 282.3598,200.2638" fill="none" id="CLIHandler-to-AnalyticsModule" style="stroke:#181818;stroke-width:1;"/><polygon fill="#181818" points="276.69,202.2269,286.5034,203.062,281.4148,200.5909,283.8859,195.5024,276.69,202.2269" style="stroke:#181818;stroke-width:1;"/></g><!--SRC=[TLJRZjem47tFL_YjhIW_W2WIiBjQf52rq7x0r9ub5eaT-LAALlllTHmds0xa9ScSySoPCpCstDH8di00EHfbgR4AoUzzITwa8j_F5o0lN82W76hoIm4zeogAJz-wXpp_Qr4mxe_i9RCka0SAMeFM2VnU438dL39ST7cuE7a3DD8Aio1ljGJZBGnCwj9Me5CBTIudgQvf94gxK3isMZ-AAOyz23YX2dJm1kW5ARau8okvDilenCfvpWWmzlcB_z88YbR3ZrJ6VNwCYcm3jNjoZ5YVN423Kww3KqeqLCmxcg-WgoEQPN_o8RqRfms8CrdtyjpZrU43_Fv0omdXpl07QZSOE7HlhA4BM2AxqG_n0lazj87yrpZtAdPzJZgJdthGgL6B4358KijJv1MC9pIRddwYrG4fylQkJ0FKbwJwlqmYFr0Qj_cO6zwWDj2qquQ7iAyWM3qA5g8VZTktxeXxBOFZAdRuQT6wJFuLEyo8RLrFXg5G-9VZ9IbqxP8PdHJeJSUhDjYaVUjz5-I7ucu6pRLFbxLkHcY5z5pAouiLJAV91DHNmscMRx06iISxkLOAt9BxrtGbgMnQQt1ZbJYuzHZxAb2vtmEsRZTJ6jjoHmQTayKiTx7yCyAuRckuxb7O4BRo-4wuZDcyr62u5BhYxL3TdUjcFb_5jr0HRKW7HLBcK7o7BaZZu-aY6vhECPYAk8jvx5pnd5OaH0Q5GdAF6zaSoUwn74uBoD6Cvty0]--></g></svg>