<svg xmlns="http://www.w3.org/2000/svg" xmlns:xlink="http://www.w3.org/1999/xlink" contentStyleType="text/css" data-diagram-type="CLASS" height="780px" preserveAspectRatio="none" style="width:1305px;height:780px;background:#FFFFFF;" version="1.1" viewBox="0 0 1305 780" width="1305px" zoomAndPan="magnify"><title>Simplified UML - Real Estate Expenditure Management (Xpense)</title><defs/><g><g class="title" data-source-line="1"><text fill="#000000" font-family="sans-serif" font-size="14" font-weight="bold" lengthAdjust="spacing" textLength="508.2998" x="391.3501" y="22.9951">Simplified UML - Real Estate Expenditure Management (Xpense)</text></g><!--cluster Core Domain--><g class="cluster" data-entity="Core Domain" data-source-line="4" data-uid="ent0002" id="cluster_Core Domain"><path d="M8.5,386.7769 L110.7061,386.7769 A3.75,3.75 0 0 1 113.2061,389.2769 L120.2061,409.0738 L626.5,409.0738 A2.5,2.5 0 0 1 629,411.5738 L629,771.2469 A2.5,2.5 0 0 1 626.5,773.7469 L8.5,773.7469 A2.5,2.5 0 0 1 6,771.2469 L6,389.2769 A2.5,2.5 0 0 1 8.5,386.7769" fill="none" style="stroke:#000000;stroke-width:1.5;"/><line style="stroke:#000000;stroke-width:1.5;" x1="6" x2="120.2061" y1="409.0738" y2="409.0738"/><text fill="#000000" font-family="sans-serif" font-size="14" font-weight="bold" lengthAdjust="spacing" textLength="101.2061" x="10" y="401.772">Core Domain</text></g><!--cluster Management Layer--><g class="cluster" data-entity="Management Layer" data-source-line="37" data-uid="ent0010" id="cluster_Management Layer"><path d="M45.5,43.2969 L198.3193,43.2969 A3.75,3.75 0 0 1 200.8193,45.7969 L207.8193,65.5938 L796.5,65.5938 A2.5,2.5 0 0 1 799,68.0938 L799,343.1269 A2.5,2.5 0 0 1 796.5,345.6269 L45.5,345.6269 A2.5,2.5 0 0 1 43,343.1269 L43,45.7969 A2.5,2.5 0 0 1 45.5,43.2969" fill="none" style="stroke:#000000;stroke-width:1.5;"/><line style="stroke:#000000;stroke-width:1.5;" x1="43" x2="207.8193" y1="65.5938" y2="65.5938"/><text fill="#000000" font-family="sans-serif" font-size="14" font-weight="bold" lengthAdjust="spacing" textLength="151.8193" x="47" y="58.292">Management Layer</text></g><!--cluster Support & Analytics--><g class="cluster" data-entity="Support . Analytics" data-source-line="75" data-uid="ent0024" id="cluster_Support . Analytics"><path d="M825.5,205.8869 L984.0615,205.8869 A3.75,3.75 0 0 1 986.5615,208.3869 L993.5615,228.1838 L1295.5,228.1838 A2.5,2.5 0 0 1 1298,230.6838 L1298,351.2769 A2.5,2.5 0 0 1 1295.5,353.7769 L825.5,353.7769 A2.5,2.5 0 0 1 823,351.2769 L823,208.3869 A2.5,2.5 0 0 1 825.5,205.8869" fill="none" style="stroke:#000000;stroke-width:1.5;"/><line style="stroke:#000000;stroke-width:1.5;" x1="823" x2="993.5615" y1="228.1838" y2="228.1838"/><text fill="#000000" font-family="sans-serif" font-size="14" font-weight="bold" lengthAdjust="spacing" textLength="157.5615" x="827" y="220.882">Support &amp; Analytics</text></g><!--class Expenditure--><g class="entity" data-entity="Expenditure" data-source-line="5" data-uid="ent0003" id="entity_Expenditure"><rect fill="#F1F1F1" height="145.7813" rx="2.5" ry="2.5" style="stroke:#181818;stroke-width:0.5;" width="218.3223" x="67.84" y="421.7769"/><ellipse cx="130.2453" cy="437.7769" fill="#ADD1B2" rx="11" ry="11" style="stroke:#181818;stroke-width:1;"/><path d="M133.214,443.4175 Q132.6359,443.7144 131.9953,443.855 Q131.3546,444.0113 130.6515,444.0113 Q128.1515,444.0113 126.8234,442.3706 Q125.5109,440.7144 125.5109,437.5894 Q125.5109,434.4644 126.8234,432.8081 Q128.1515,431.1519 130.6515,431.1519 Q131.3546,431.1519 131.9953,431.3081 Q132.6515,431.4644 133.214,431.7613 L133.214,434.48 Q132.589,433.9019 131.9953,433.6363 Q131.4015,433.355 130.7765,433.355 Q129.4328,433.355 128.7453,434.4331 Q128.0578,435.4956 128.0578,437.5894 Q128.0578,439.6831 128.7453,440.7613 Q129.4328,441.8238 130.7765,441.8238 Q131.4015,441.8238 131.9953,441.5581 Q132.589,441.2769 133.214,440.6988 L133.214,443.4175 Z " fill="#000000"/><text fill="#000000" font-family="sans-serif" font-size="14" lengthAdjust="spacing" textLength="85.0117" x="150.7453" y="442.6236">Expenditure</text><line style="stroke:#181818;stroke-width:0.5;" x1="68.84" x2="285.1623" y1="453.7769" y2="453.7769"/><rect fill="none" height="6" style="stroke:#C82930;stroke-width:1;" width="6" x="75.84" y="464.4253"/><text fill="#000000" font-family="sans-serif" font-size="14" lengthAdjust="spacing" textLength="63.7246" x="87.84" y="470.772">id: String</text><rect fill="none" height="6" style="stroke:#C82930;stroke-width:1;" width="6" x="75.84" y="480.7222"/><text fill="#000000" font-family="sans-serif" font-size="14" lengthAdjust="spacing" textLength="128.7891" x="87.84" y="487.0689">description: String</text><rect fill="none" height="6" style="stroke:#C82930;stroke-width:1;" width="6" x="75.84" y="497.0191"/><text fill="#000000" font-family="sans-serif" font-size="14" lengthAdjust="spacing" textLength="142.6523" x="87.84" y="503.3657">amount: BigDecimal</text><rect fill="none" height="6" style="stroke:#C82930;stroke-width:1;" width="6" x="75.84" y="513.3159"/><text fill="#000000" font-family="sans-serif" font-size="14" lengthAdjust="spacing" textLength="180.1133" x="87.84" y="519.6626">dateTime: LocalDateTime</text><rect fill="none" height="6" style="stroke:#C82930;stroke-width:1;" width="6" x="75.84" y="529.6128"/><text fill="#000000" font-family="sans-serif" font-size="14" lengthAdjust="spacing" textLength="134.9893" x="87.84" y="535.9595">category: Category</text><rect fill="none" height="6" style="stroke:#C82930;stroke-width:1;" width="6" x="75.84" y="545.9097"/><text fill="#000000" font-family="sans-serif" font-size="14" lengthAdjust="spacing" textLength="192.3223" x="87.84" y="552.2564">bankAccount: BankAccount</text><line style="stroke:#181818;stroke-width:0.5;" x1="68.84" x2="285.1623" y1="559.5581" y2="559.5581"/></g><!--class Category--><g class="entity" data-entity="Category" data-source-line="14" data-uid="ent0004" id="entity_Category"><rect fill="#F1F1F1" height="80.5938" rx="2.5" ry="2.5" style="stroke:#181818;stroke-width:0.5;" width="116.6514" x="21.67" y="660.8569"/><ellipse cx="45.9855" cy="676.8569" fill="#ADD1B2" rx="11" ry="11" style="stroke:#181818;stroke-width:1;"/><path d="M48.9543,682.4975 Q48.3762,682.7944 47.7355,682.935 Q47.0949,683.0913 46.3918,683.0913 Q43.8918,683.0913 42.5637,681.4506 Q41.2512,679.7944 41.2512,676.6694 Q41.2512,673.5444 42.5637,671.8881 Q43.8918,670.2319 46.3918,670.2319 Q47.0949,670.2319 47.7355,670.3881 Q48.3918,670.5444 48.9543,670.8413 L48.9543,673.56 Q48.3293,672.9819 47.7355,672.7163 Q47.1418,672.435 46.5168,672.435 Q45.173,672.435 44.4855,673.5131 Q43.798,674.5756 43.798,676.6694 Q43.798,678.7631 44.4855,679.8413 Q45.173,680.9038 46.5168,680.9038 Q47.1418,680.9038 47.7355,680.6381 Q48.3293,680.3569 48.9543,679.7788 L48.9543,682.4975 Z " fill="#000000"/><text fill="#000000" font-family="sans-serif" font-size="14" lengthAdjust="spacing" textLength="63.9502" x="62.0556" y="681.7036">Category</text><line style="stroke:#181818;stroke-width:0.5;" x1="22.67" x2="137.3214" y1="692.8569" y2="692.8569"/><rect fill="none" height="6" style="stroke:#C82930;stroke-width:1;" width="6" x="29.67" y="703.5053"/><text fill="#000000" font-family="sans-serif" font-size="14" lengthAdjust="spacing" textLength="90.6514" x="41.67" y="709.852">name: String</text><rect fill="none" height="6" style="stroke:#C82930;stroke-width:1;" width="6" x="29.67" y="719.8022"/><text fill="#000000" font-family="sans-serif" font-size="14" lengthAdjust="spacing" textLength="85.4219" x="41.67" y="726.1489">color: String</text><line style="stroke:#181818;stroke-width:0.5;" x1="22.67" x2="137.3214" y1="733.4506" y2="733.4506"/></g><!--class BankAccount--><g class="entity" data-entity="BankAccount" data-source-line="19" data-uid="ent0005" id="entity_BankAccount"><rect fill="#F1F1F1" height="113.1875" rx="2.5" ry="2.5" style="stroke:#181818;stroke-width:0.5;" width="188.9619" x="173.52" y="644.5569"/><ellipse cx="217.7827" cy="660.5569" fill="#ADD1B2" rx="11" ry="11" style="stroke:#181818;stroke-width:1;"/><path d="M220.7514,666.1975 Q220.1733,666.4944 219.5327,666.635 Q218.8921,666.7913 218.1889,666.7913 Q215.6889,666.7913 214.3608,665.1506 Q213.0483,663.4944 213.0483,660.3694 Q213.0483,657.2444 214.3608,655.5881 Q215.6889,653.9319 218.1889,653.9319 Q218.8921,653.9319 219.5327,654.0881 Q220.1889,654.2444 220.7514,654.5413 L220.7514,657.26 Q220.1264,656.6819 219.5327,656.4163 Q218.9389,656.135 218.3139,656.135 Q216.9702,656.135 216.2827,657.2131 Q215.5952,658.2756 215.5952,660.3694 Q215.5952,662.4631 216.2827,663.5413 Q216.9702,664.6038 218.3139,664.6038 Q218.9389,664.6038 219.5327,664.3381 Q220.1264,664.0569 220.7514,663.4788 L220.7514,666.1975 Z " fill="#000000"/><text fill="#000000" font-family="sans-serif" font-size="14" lengthAdjust="spacing" textLength="91.9365" x="238.2827" y="665.4036">BankAccount</text><line style="stroke:#181818;stroke-width:0.5;" x1="174.52" x2="361.4819" y1="676.5569" y2="676.5569"/><rect fill="none" height="6" style="stroke:#C82930;stroke-width:1;" width="6" x="181.52" y="687.2053"/><text fill="#000000" font-family="sans-serif" font-size="14" lengthAdjust="spacing" textLength="162.9619" x="193.52" y="693.552">accountNumber: String</text><rect fill="none" height="6" style="stroke:#C82930;stroke-width:1;" width="6" x="181.52" y="703.5022"/><text fill="#000000" font-family="sans-serif" font-size="14" lengthAdjust="spacing" textLength="143.7529" x="193.52" y="709.8489">balance: BigDecimal</text><line style="stroke:#181818;stroke-width:0.5;" x1="174.52" x2="361.4819" y1="717.1506" y2="717.1506"/><ellipse cx="184.52" cy="730.7991" fill="#84BE84" rx="3" ry="3" style="stroke:#038048;stroke-width:1;"/><text fill="#000000" font-family="sans-serif" font-size="14" lengthAdjust="spacing" textLength="100.707" x="193.52" y="734.1457">debit(amount)</text><ellipse cx="184.52" cy="747.0959" fill="#84BE84" rx="3" ry="3" style="stroke:#038048;stroke-width:1;"/><text fill="#000000" font-family="sans-serif" font-size="14" lengthAdjust="spacing" textLength="105.2734" x="193.52" y="750.4426">credit(amount)</text></g><!--class Receipt--><g class="entity" data-entity="Receipt" data-source-line="26" data-uid="ent0006" id="entity_Receipt"><rect fill="#F1F1F1" height="80.5938" rx="2.5" ry="2.5" style="stroke:#181818;stroke-width:0.5;" width="215.3691" x="397.32" y="660.8569"/><ellipse cx="474.2961" cy="676.8569" fill="#ADD1B2" rx="11" ry="11" style="stroke:#181818;stroke-width:1;"/><path d="M477.2648,682.4975 Q476.6867,682.7944 476.0461,682.935 Q475.4054,683.0913 474.7023,683.0913 Q472.2023,683.0913 470.8742,681.4506 Q469.5617,679.7944 469.5617,676.6694 Q469.5617,673.5444 470.8742,671.8881 Q472.2023,670.2319 474.7023,670.2319 Q475.4054,670.2319 476.0461,670.3881 Q476.7023,670.5444 477.2648,670.8413 L477.2648,673.56 Q476.6398,672.9819 476.0461,672.7163 Q475.4523,672.435 474.8273,672.435 Q473.4836,672.435 472.7961,673.5131 Q472.1086,674.5756 472.1086,676.6694 Q472.1086,678.7631 472.7961,679.8413 Q473.4836,680.9038 474.8273,680.9038 Q475.4523,680.9038 476.0461,680.6381 Q476.6398,680.3569 477.2648,679.7788 L477.2648,682.4975 Z " fill="#000000"/><text fill="#000000" font-family="sans-serif" font-size="14" lengthAdjust="spacing" textLength="52.917" x="494.7961" y="681.7036">Receipt</text><line style="stroke:#181818;stroke-width:0.5;" x1="398.32" x2="611.6891" y1="692.8569" y2="692.8569"/><rect fill="none" height="6" style="stroke:#C82930;stroke-width:1;" width="6" x="405.32" y="703.5053"/><text fill="#000000" font-family="sans-serif" font-size="14" lengthAdjust="spacing" textLength="103.6533" x="417.32" y="709.852">filePath: String</text><rect fill="none" height="6" style="stroke:#C82930;stroke-width:1;" width="6" x="405.32" y="719.8022"/><text fill="#000000" font-family="sans-serif" font-size="14" lengthAdjust="spacing" textLength="189.3691" x="417.32" y="726.1489">timestamp: LocalDateTime</text><line style="stroke:#181818;stroke-width:0.5;" x1="398.32" x2="611.6891" y1="733.4506" y2="733.4506"/></g><!--class XpenseSystem--><g class="entity" data-entity="XpenseSystem" data-source-line="38" data-uid="ent0011" id="entity_XpenseSystem"><rect fill="#F1F1F1" height="80.5938" rx="2.5" ry="2.5" style="stroke:#181818;stroke-width:0.5;" width="136.0771" x="555.96" y="78.2969"/><ellipse cx="570.96" cy="94.2969" fill="#ADD1B2" rx="11" ry="11" style="stroke:#181818;stroke-width:1;"/><path d="M573.9288,99.9375 Q573.3506,100.2344 572.71,100.375 Q572.0694,100.5313 571.3663,100.5313 Q568.8663,100.5313 567.5381,98.8906 Q566.2256,97.2344 566.2256,94.1094 Q566.2256,90.9844 567.5381,89.3281 Q568.8663,87.6719 571.3663,87.6719 Q572.0694,87.6719 572.71,87.8281 Q573.3663,87.9844 573.9288,88.2813 L573.9288,91 Q573.3038,90.4219 572.71,90.1563 Q572.1163,89.875 571.4913,89.875 Q570.1475,89.875 569.46,90.9531 Q568.7725,92.0156 568.7725,94.1094 Q568.7725,96.2031 569.46,97.2813 Q570.1475,98.3438 571.4913,98.3438 Q572.1163,98.3438 572.71,98.0781 Q573.3038,97.7969 573.9288,97.2188 L573.9288,99.9375 Z " fill="#000000"/><text fill="#000000" font-family="sans-serif" font-size="14" lengthAdjust="spacing" textLength="104.0771" x="584.96" y="99.1436">XpenseSystem</text><line style="stroke:#181818;stroke-width:0.5;" x1="556.96" x2="691.0371" y1="110.2969" y2="110.2969"/><line style="stroke:#181818;stroke-width:0.5;" x1="556.96" x2="691.0371" y1="118.2969" y2="118.2969"/><ellipse cx="566.96" cy="131.9453" fill="#84BE84" rx="3" ry="3" style="stroke:#038048;stroke-width:1;"/><text fill="#000000" font-family="sans-serif" font-size="14" lengthAdjust="spacing" textLength="74.2725" x="575.96" y="135.292">loadData()</text><ellipse cx="566.96" cy="148.2422" fill="#84BE84" rx="3" ry="3" style="stroke:#038048;stroke-width:1;"/><text fill="#000000" font-family="sans-serif" font-size="14" lengthAdjust="spacing" textLength="77.123" x="575.96" y="151.5889">saveData()</text></g><!--class ExpenditureManager--><g class="entity" data-entity="ExpenditureManager" data-source-line="43" data-uid="ent0012" id="entity_ExpenditureManager"><rect fill="#F1F1F1" height="80.5938" rx="2.5" ry="2.5" style="stroke:#181818;stroke-width:0.5;" width="178.3779" x="58.81" y="249.0369"/><ellipse cx="73.81" cy="265.0369" fill="#ADD1B2" rx="11" ry="11" style="stroke:#181818;stroke-width:1;"/><path d="M76.7788,270.6775 Q76.2006,270.9744 75.56,271.115 Q74.9194,271.2713 74.2163,271.2713 Q71.7163,271.2713 70.3881,269.6306 Q69.0756,267.9744 69.0756,264.8494 Q69.0756,261.7244 70.3881,260.0681 Q71.7163,258.4119 74.2163,258.4119 Q74.9194,258.4119 75.56,258.5681 Q76.2163,258.7244 76.7788,259.0213 L76.7788,261.74 Q76.1538,261.1619 75.56,260.8963 Q74.9663,260.615 74.3413,260.615 Q72.9975,260.615 72.31,261.6931 Q71.6225,262.7556 71.6225,264.8494 Q71.6225,266.9431 72.31,268.0213 Q72.9975,269.0838 74.3413,269.0838 Q74.9663,269.0838 75.56,268.8181 Q76.1538,268.5369 76.7788,267.9588 L76.7788,270.6775 Z " fill="#000000"/><text fill="#000000" font-family="sans-serif" font-size="14" lengthAdjust="spacing" textLength="146.3779" x="87.81" y="269.8836">ExpenditureManager</text><line style="stroke:#181818;stroke-width:0.5;" x1="59.81" x2="236.1879" y1="281.0369" y2="281.0369"/><line style="stroke:#181818;stroke-width:0.5;" x1="59.81" x2="236.1879" y1="289.0369" y2="289.0369"/><ellipse cx="69.81" cy="302.6853" fill="#84BE84" rx="3" ry="3" style="stroke:#038048;stroke-width:1;"/><text fill="#000000" font-family="sans-serif" font-size="14" lengthAdjust="spacing" textLength="130.9014" x="78.81" y="306.032">addExpenditure(e)</text><ellipse cx="69.81" cy="318.9822" fill="#84BE84" rx="3" ry="3" style="stroke:#038048;stroke-width:1;"/><text fill="#000000" font-family="sans-serif" font-size="14" lengthAdjust="spacing" textLength="143.5752" x="78.81" y="322.3289">getAllExpenditures()</text></g><!--class CategoryManager--><g class="entity" data-entity="CategoryManager" data-source-line="48" data-uid="ent0013" id="entity_CategoryManager"><rect fill="#F1F1F1" height="80.5938" rx="2.5" ry="2.5" style="stroke:#181818;stroke-width:0.5;" width="157.3164" x="272.34" y="249.0369"/><ellipse cx="287.34" cy="265.0369" fill="#ADD1B2" rx="11" ry="11" style="stroke:#181818;stroke-width:1;"/><path d="M290.3088,270.6775 Q289.7306,270.9744 289.09,271.115 Q288.4494,271.2713 287.7463,271.2713 Q285.2463,271.2713 283.9181,269.6306 Q282.6056,267.9744 282.6056,264.8494 Q282.6056,261.7244 283.9181,260.0681 Q285.2463,258.4119 287.7463,258.4119 Q288.4494,258.4119 289.09,258.5681 Q289.7463,258.7244 290.3088,259.0213 L290.3088,261.74 Q289.6838,261.1619 289.09,260.8963 Q288.4963,260.615 287.8713,260.615 Q286.5275,260.615 285.84,261.6931 Q285.1525,262.7556 285.1525,264.8494 Q285.1525,266.9431 285.84,268.0213 Q286.5275,269.0838 287.8713,269.0838 Q288.4963,269.0838 289.09,268.8181 Q289.6838,268.5369 290.3088,267.9588 L290.3088,270.6775 Z " fill="#000000"/><text fill="#000000" font-family="sans-serif" font-size="14" lengthAdjust="spacing" textLength="125.3164" x="301.34" y="269.8836">CategoryManager</text><line style="stroke:#181818;stroke-width:0.5;" x1="273.34" x2="428.6564" y1="281.0369" y2="281.0369"/><line style="stroke:#181818;stroke-width:0.5;" x1="273.34" x2="428.6564" y1="289.0369" y2="289.0369"/><ellipse cx="283.34" cy="302.6853" fill="#84BE84" rx="3" ry="3" style="stroke:#038048;stroke-width:1;"/><text fill="#000000" font-family="sans-serif" font-size="14" lengthAdjust="spacing" textLength="108.9238" x="292.34" y="306.032">addCategory(c)</text><ellipse cx="283.34" cy="318.9822" fill="#84BE84" rx="3" ry="3" style="stroke:#038048;stroke-width:1;"/><text fill="#000000" font-family="sans-serif" font-size="14" lengthAdjust="spacing" textLength="126.7314" x="292.34" y="322.3289">getAllCategories()</text></g><!--class BankLedger--><g class="entity" data-entity="BankLedger" data-source-line="53" data-uid="ent0014" id="entity_BankLedger"><rect fill="#F1F1F1" height="80.5938" rx="2.5" ry="2.5" style="stroke:#181818;stroke-width:0.5;" width="143.2773" x="464.36" y="249.0369"/><ellipse cx="491.7609" cy="265.0369" fill="#ADD1B2" rx="11" ry="11" style="stroke:#181818;stroke-width:1;"/><path d="M494.7297,270.6775 Q494.1516,270.9744 493.5109,271.115 Q492.8703,271.2713 492.1672,271.2713 Q489.6672,271.2713 488.3391,269.6306 Q487.0266,267.9744 487.0266,264.8494 Q487.0266,261.7244 488.3391,260.0681 Q489.6672,258.4119 492.1672,258.4119 Q492.8703,258.4119 493.5109,258.5681 Q494.1672,258.7244 494.7297,259.0213 L494.7297,261.74 Q494.1047,261.1619 493.5109,260.8963 Q492.9172,260.615 492.2922,260.615 Q490.9484,260.615 490.2609,261.6931 Q489.5734,262.7556 489.5734,264.8494 Q489.5734,266.9431 490.2609,268.0213 Q490.9484,269.0838 492.2922,269.0838 Q492.9172,269.0838 493.5109,268.8181 Q494.1047,268.5369 494.7297,267.9588 L494.7297,270.6775 Z " fill="#000000"/><text fill="#000000" font-family="sans-serif" font-size="14" lengthAdjust="spacing" textLength="83.7197" x="508.5167" y="269.8836">BankLedger</text><line style="stroke:#181818;stroke-width:0.5;" x1="465.36" x2="606.6373" y1="281.0369" y2="281.0369"/><line style="stroke:#181818;stroke-width:0.5;" x1="465.36" x2="606.6373" y1="289.0369" y2="289.0369"/><ellipse cx="475.36" cy="302.6853" fill="#84BE84" rx="3" ry="3" style="stroke:#038048;stroke-width:1;"/><text fill="#000000" font-family="sans-serif" font-size="14" lengthAdjust="spacing" textLength="102.6279" x="484.36" y="306.032">addAccount(a)</text><ellipse cx="475.36" cy="318.9822" fill="#84BE84" rx="3" ry="3" style="stroke:#038048;stroke-width:1;"/><text fill="#000000" font-family="sans-serif" font-size="14" lengthAdjust="spacing" textLength="117.2773" x="484.36" y="322.3289">logExpenditure()</text></g><!--class ReceiptHandler--><g class="entity" data-entity="ReceiptHandler" data-source-line="58" data-uid="ent0015" id="entity_ReceiptHandler"><rect fill="#F1F1F1" height="80.5938" rx="2.5" ry="2.5" style="stroke:#181818;stroke-width:0.5;" width="140.042" x="642.98" y="249.0369"/><ellipse cx="657.98" cy="265.0369" fill="#ADD1B2" rx="11" ry="11" style="stroke:#181818;stroke-width:1;"/><path d="M660.9488,270.6775 Q660.3706,270.9744 659.73,271.115 Q659.0894,271.2713 658.3863,271.2713 Q655.8863,271.2713 654.5581,269.6306 Q653.2456,267.9744 653.2456,264.8494 Q653.2456,261.7244 654.5581,260.0681 Q655.8863,258.4119 658.3863,258.4119 Q659.0894,258.4119 659.73,258.5681 Q660.3863,258.7244 660.9488,259.0213 L660.9488,261.74 Q660.3238,261.1619 659.73,260.8963 Q659.1363,260.615 658.5113,260.615 Q657.1675,260.615 656.48,261.6931 Q655.7925,262.7556 655.7925,264.8494 Q655.7925,266.9431 656.48,268.0213 Q657.1675,269.0838 658.5113,269.0838 Q659.1363,269.0838 659.73,268.8181 Q660.3238,268.5369 660.9488,267.9588 L660.9488,270.6775 Z " fill="#000000"/><text fill="#000000" font-family="sans-serif" font-size="14" lengthAdjust="spacing" textLength="108.042" x="671.98" y="269.8836">ReceiptHandler</text><line style="stroke:#181818;stroke-width:0.5;" x1="643.98" x2="782.022" y1="281.0369" y2="281.0369"/><line style="stroke:#181818;stroke-width:0.5;" x1="643.98" x2="782.022" y1="289.0369" y2="289.0369"/><ellipse cx="653.98" cy="302.6853" fill="#84BE84" rx="3" ry="3" style="stroke:#038048;stroke-width:1;"/><text fill="#000000" font-family="sans-serif" font-size="14" lengthAdjust="spacing" textLength="95.9492" x="662.98" y="306.032">addReceipt(r)</text><ellipse cx="653.98" cy="318.9822" fill="#84BE84" rx="3" ry="3" style="stroke:#038048;stroke-width:1;"/><text fill="#000000" font-family="sans-serif" font-size="14" lengthAdjust="spacing" textLength="111.4805" x="662.98" y="322.3289">getAllReceipts()</text></g><!--class AnalyticsModule--><g class="entity" data-entity="AnalyticsModule" data-source-line="76" data-uid="ent0025" id="entity_AnalyticsModule"><rect fill="#F1F1F1" height="80.5938" rx="2.5" ry="2.5" style="stroke:#181818;stroke-width:0.5;" width="189.3926" x="839.3" y="249.0369"/><ellipse cx="873.61" cy="265.0369" fill="#ADD1B2" rx="11" ry="11" style="stroke:#181818;stroke-width:1;"/><path d="M876.5788,270.6775 Q876.0006,270.9744 875.36,271.115 Q874.7194,271.2713 874.0163,271.2713 Q871.5163,271.2713 870.1881,269.6306 Q868.8756,267.9744 868.8756,264.8494 Q868.8756,261.7244 870.1881,260.0681 Q871.5163,258.4119 874.0163,258.4119 Q874.7194,258.4119 875.36,258.5681 Q876.0163,258.7244 876.5788,259.0213 L876.5788,261.74 Q875.9538,261.1619 875.36,260.8963 Q874.7663,260.615 874.1413,260.615 Q872.7975,260.615 872.11,261.6931 Q871.4225,262.7556 871.4225,264.8494 Q871.4225,266.9431 872.11,268.0213 Q872.7975,269.0838 874.1413,269.0838 Q874.7663,269.0838 875.36,268.8181 Q875.9538,268.5369 876.5788,267.9588 L876.5788,270.6775 Z " fill="#000000"/><text fill="#000000" font-family="sans-serif" font-size="14" lengthAdjust="spacing" textLength="114.4814" x="891.9011" y="269.8836">AnalyticsModule</text><line style="stroke:#181818;stroke-width:0.5;" x1="840.3" x2="1027.6926" y1="281.0369" y2="281.0369"/><line style="stroke:#181818;stroke-width:0.5;" x1="840.3" x2="1027.6926" y1="289.0369" y2="289.0369"/><ellipse cx="850.3" cy="302.6853" fill="#84BE84" rx="3" ry="3" style="stroke:#038048;stroke-width:1;"/><text fill="#000000" font-family="sans-serif" font-size="14" lengthAdjust="spacing" textLength="163.3926" x="859.3" y="306.032">calculateMonthlyBurn()</text><ellipse cx="850.3" cy="318.9822" fill="#84BE84" rx="3" ry="3" style="stroke:#038048;stroke-width:1;"/><text fill="#000000" font-family="sans-serif" font-size="14" lengthAdjust="spacing" textLength="135.3789" x="859.3" y="322.3289">getTopCategories()</text></g><!--class AlertSystem--><g class="entity" data-entity="AlertSystem" data-source-line="81" data-uid="ent0026" id="entity_AlertSystem"><rect fill="#F1F1F1" height="96.8906" rx="2.5" ry="2.5" style="stroke:#181818;stroke-width:0.5;" width="218.9375" x="1063.53" y="240.8869"/><ellipse cx="1125.9831" cy="256.8869" fill="#ADD1B2" rx="11" ry="11" style="stroke:#181818;stroke-width:1;"/><path d="M1128.9519,262.5275 Q1128.3738,262.8244 1127.7331,262.965 Q1127.0925,263.1213 1126.3894,263.1213 Q1123.8894,263.1213 1122.5613,261.4806 Q1121.2488,259.8244 1121.2488,256.6994 Q1121.2488,253.5744 1122.5613,251.9181 Q1123.8894,250.2619 1126.3894,250.2619 Q1127.0925,250.2619 1127.7331,250.4181 Q1128.3894,250.5744 1128.9519,250.8713 L1128.9519,253.59 Q1128.3269,253.0119 1127.7331,252.7463 Q1127.1394,252.465 1126.5144,252.465 Q1125.1706,252.465 1124.4831,253.5431 Q1123.7956,254.6056 1123.7956,256.6994 Q1123.7956,258.7931 1124.4831,259.8713 Q1125.1706,260.9338 1126.5144,260.9338 Q1127.1394,260.9338 1127.7331,260.6681 Q1128.3269,260.3869 1128.9519,259.8088 L1128.9519,262.5275 Z " fill="#000000"/><text fill="#000000" font-family="sans-serif" font-size="14" lengthAdjust="spacing" textLength="85.5313" x="1146.4831" y="261.7336">AlertSystem</text><line style="stroke:#181818;stroke-width:0.5;" x1="1064.53" x2="1281.4675" y1="272.8869" y2="272.8869"/><line style="stroke:#181818;stroke-width:0.5;" x1="1064.53" x2="1281.4675" y1="280.8869" y2="280.8869"/><ellipse cx="1074.53" cy="294.5353" fill="#84BE84" rx="3" ry="3" style="stroke:#038048;stroke-width:1;"/><text fill="#000000" font-family="sans-serif" font-size="14" lengthAdjust="spacing" textLength="192.9375" x="1083.53" y="297.882">addAlert(message, priority)</text><ellipse cx="1074.53" cy="310.8322" fill="#84BE84" rx="3" ry="3" style="stroke:#038048;stroke-width:1;"/><text fill="#000000" font-family="sans-serif" font-size="14" lengthAdjust="spacing" textLength="121.707" x="1083.53" y="314.1789">checkLowFunds()</text><ellipse cx="1074.53" cy="327.1291" fill="#84BE84" rx="3" ry="3" style="stroke:#038048;stroke-width:1;"/><text fill="#000000" font-family="sans-serif" font-size="14" lengthAdjust="spacing" textLength="152.4141" x="1083.53" y="330.4757">checkSpendingLimit()</text></g><!--link Expenditure to Category--><g class="link" data-entity-1="Expenditure" data-entity-2="Category" data-source-line="32" data-uid="lnk7" id="link_Expenditure_Category"><path codeLine="32" d="M107.59,567.9269 C101.12,577.3769 95.37,587.3469 91,597.5569 C82.55,617.3269 79.8385,635.1112 79.0885,654.7912" fill="none" id="Expenditure-to-Category" style="stroke:#181818;stroke-width:1;"/><polygon fill="#181818" points="78.86,660.7869,83.1998,651.9457,79.0504,655.7905,75.2056,651.6411,78.86,660.7869" style="stroke:#181818;stroke-width:1;"/><text fill="#000000" font-family="sans-serif" font-size="13" lengthAdjust="spacing" textLength="68.2627" x="92" y="610.6238">belongs to</text></g><!--link Expenditure to BankAccount--><g class="link" data-entity-1="Expenditure" data-entity-2="BankAccount" data-source-line="33" data-uid="lnk8" id="link_Expenditure_BankAccount"><path codeLine="33" d="M166.08,568.0369 C166.31,583.8769 168.7,600.1969 175,614.5569 C179.67,625.2069 182.4986,630.5585 190.2186,639.5785" fill="none" id="Expenditure-to-BankAccount" style="stroke:#181818;stroke-width:1;"/><polygon fill="#181818" points="194.12,644.1369,191.3068,634.6983,190.8688,640.3382,185.2289,639.9002,194.12,644.1369" style="stroke:#181818;stroke-width:1;"/><text fill="#000000" font-family="sans-serif" font-size="13" lengthAdjust="spacing" textLength="70.3828" x="176" y="610.6238">charged to</text></g><!--link Expenditure to Receipt--><g class="link" data-entity-1="Expenditure" data-entity-2="Receipt" data-source-line="34" data-uid="lnk9" id="link_Expenditure_Receipt"><path codeLine="34" d="M286.22,563.7569 C337.65,595.8269 392.118,629.7833 436.098,657.1933" fill="none" id="Expenditure-to-Receipt" style="stroke:#181818;stroke-width:1;"/><polygon fill="#181818" points="441.19,660.3669,435.6677,652.2119,436.9467,657.7223,431.4363,659.0012,441.19,660.3669" style="stroke:#181818;stroke-width:1;"/><text fill="#000000" font-family="sans-serif" font-size="13" lengthAdjust="spacing" textLength="64.3525" x="361" y="610.6238">may have</text></g><!--link XpenseSystem to ExpenditureManager--><g class="link" data-entity-1="XpenseSystem" data-entity-2="ExpenditureManager" data-source-line="64" data-uid="lnk16" id="link_XpenseSystem_ExpenditureManager"><path codeLine="64" d="M555.79,124.0569 C479.18,131.2869 352.78,149.9969 255,197.8869 C229.22,210.5069 208.8437,226.5988 189.6537,244.7088" fill="none" id="XpenseSystem-to-ExpenditureManager" style="stroke:#181818;stroke-width:1;"/><polygon fill="#181818" points="185.29,248.8269,194.5809,245.5589,188.9264,245.3951,189.0901,239.7407,185.29,248.8269" style="stroke:#181818;stroke-width:1;"/></g><!--link XpenseSystem to CategoryManager--><g class="link" data-entity-1="XpenseSystem" data-entity-2="CategoryManager" data-source-line="65" data-uid="lnk17" id="link_XpenseSystem_CategoryManager"><path codeLine="65" d="M555.66,143.5269 C521.58,156.9869 480.59,175.5869 447,197.8869 C425.44,212.1969 408.4389,227.2406 391.4489,244.3406" fill="none" id="XpenseSystem-to-CategoryManager" style="stroke:#181818;stroke-width:1;"/><polygon fill="#181818" points="387.22,248.5969,396.4009,245.0317,390.7441,245.05,390.7259,239.3931,387.22,248.5969" style="stroke:#181818;stroke-width:1;"/></g><!--link XpenseSystem to BankLedger--><g class="link" data-entity-1="XpenseSystem" data-entity-2="BankLedger" data-source-line="66" data-uid="lnk18" id="link_XpenseSystem_BankLedger"><path codeLine="66" d="M603.37,159.1569 C589.3,186.1369 573.5036,216.4164 559.4336,243.4064" fill="none" id="XpenseSystem-to-BankLedger" style="stroke:#181818;stroke-width:1;"/><polygon fill="#181818" points="556.66,248.7269,564.3673,242.5952,558.9713,244.2932,557.2734,238.8971,556.66,248.7269" style="stroke:#181818;stroke-width:1;"/></g><!--link XpenseSystem to ReceiptHandler--><g class="link" data-entity-1="XpenseSystem" data-entity-2="ReceiptHandler" data-source-line="67" data-uid="lnk19" id="link_XpenseSystem_ReceiptHandler"><path codeLine="67" d="M644.87,159.1569 C659.1,186.1369 675.0702,216.4302 689.3102,243.4202" fill="none" id="XpenseSystem-to-ReceiptHandler" style="stroke:#181818;stroke-width:1;"/><polygon fill="#181818" points="692.11,248.7269,691.4481,238.9003,689.7768,244.3046,684.3725,242.6334,692.11,248.7269" style="stroke:#181818;stroke-width:1;"/></g><!--link ExpenditureManager to Expenditure--><g class="link" data-entity-1="ExpenditureManager" data-entity-2="Expenditure" data-source-line="69" data-uid="lnk20" id="link_ExpenditureManager_Expenditure"><path codeLine="69" d="M153.66,330.0169 C157.37,356.0269 161.4831,384.8369 165.8731,415.6269" fill="none" id="ExpenditureManager-to-Expenditure" style="stroke:#181818;stroke-width:1;"/><polygon fill="#181818" points="166.72,421.5669,169.4096,412.0924,166.0142,416.6169,161.4897,413.2216,166.72,421.5669" style="stroke:#181818;stroke-width:1;"/></g><!--link CategoryManager to Category--><g class="link" data-entity-1="CategoryManager" data-entity-2="Category" data-source-line="70" data-uid="lnk21" id="link_CategoryManager_Category"><path codeLine="70" d="M366.77,330.1069 C390.57,397.4769 426.01,534.4869 357,614.5569 C327.52,648.7669 197.77,627.3969 156,644.5569 C146.02,648.6569 141.1055,650.9837 131.9355,657.1637" fill="none" id="CategoryManager-to-Category" style="stroke:#181818;stroke-width:1;"/><polygon fill="#181818" points="126.96,660.5169,136.6588,658.8041,131.1063,657.7225,132.1878,652.17,126.96,660.5169" style="stroke:#181818;stroke-width:1;"/></g><!--link BankLedger to BankAccount--><g class="link" data-entity-1="BankLedger" data-entity-2="BankAccount" data-source-line="71" data-uid="lnk22" id="link_BankLedger_BankAccount"><path codeLine="71" d="M528.37,329.8669 C514.05,395.3869 477.78,527.8269 405,614.5569 C393.1,628.7369 383.1505,637.8633 367.6305,648.6933" fill="none" id="BankLedger-to-BankAccount" style="stroke:#181818;stroke-width:1;"/><polygon fill="#181818" points="362.71,652.1269,372.3797,650.2569,366.8104,649.2656,367.8017,643.6963,362.71,652.1269" style="stroke:#181818;stroke-width:1;"/></g><!--link ReceiptHandler to Receipt--><g class="link" data-entity-1="ReceiptHandler" data-entity-2="Receipt" data-source-line="72" data-uid="lnk23" id="link_ReceiptHandler_Receipt"><path codeLine="72" d="M692.87,329.9969 C653.11,408.3469 567.6255,576.7565 527.8555,655.1165" fill="none" id="ReceiptHandler-to-Receipt" style="stroke:#181818;stroke-width:1;"/><polygon fill="#181818" points="525.14,660.4669,532.7801,654.2517,527.4029,656.0082,525.6463,650.631,525.14,660.4669" style="stroke:#181818;stroke-width:1;"/></g><!--link XpenseSystem to AnalyticsModule--><g class="link" data-entity-1="XpenseSystem" data-entity-2="AnalyticsModule" data-source-line="88" data-uid="lnk27" id="link_XpenseSystem_AnalyticsModule"><path codeLine="88" d="M692.2,146.9169 C725.11,160.8969 764.78,178.9469 799,197.8869 C826.4,213.0469 850.4877,228.6503 874.5677,245.3303" fill="none" id="XpenseSystem-to-AnalyticsModule" style="stroke:#181818;stroke-width:1;"/><polygon fill="#181818" points="879.5,248.7469,874.3793,240.3339,875.3898,245.8998,869.8239,246.9102,879.5,248.7469" style="stroke:#181818;stroke-width:1;"/></g><!--link XpenseSystem to AlertSystem--><g class="link" data-entity-1="XpenseSystem" data-entity-2="AlertSystem" data-source-line="89" data-uid="lnk28" id="link_XpenseSystem_AlertSystem"><path codeLine="89" d="M692.38,123.1869 C778.07,129.6969 928.01,147.8469 1046,197.8869 C1071.04,208.5069 1091.1986,221.1287 1112.2686,236.9187" fill="none" id="XpenseSystem-to-AlertSystem" style="stroke:#181818;stroke-width:1;"/><polygon fill="#181818" points="1117.07,240.5169,1112.2667,231.9187,1113.0689,237.5184,1107.4692,238.3205,1117.07,240.5169" style="stroke:#181818;stroke-width:1;"/></g><!--SRC=[TLJ1Zfim4Btp5QCzjAos-G6aLcAJR7iWkr78IhrEx5bYnTZ8cBQesd-lQO0OmtB2R-mtRvuVM64bGIxAIeetGHnUTnciu40eOLjRj0JRFnKfBcnZ27QeiA2Ib8NufuDhke-Yp_1rV63zSjZ2EalpV9jxU5GXkxYZSBVMZcUZInJg3lv604nYNK-wT2Wu5O8da5iZLD43d6fcH6M5La45Izqecy2ZA3R4H8boEE96E8gI4iWqGxdfbtsLkMMXJPl0kd_h2oTKbvIndlIsSENtQ1Gz71eLA-mwJPGnBRNnCE-unpiou7Nzt9GdCW7L2IKgHhCf7vmn9s7ZgmdtFSOCyGdeTJuG8-VZsFLDIDgZFGSDhNFAXQ2ivkwzHuxElxJLwjlDZmHE9BKgQh1wjiiVEm5sHbEuu2ri75GcK68BP_n5GTXswNFwVNjO3fgNrGnRCdxQhjdDszfIsPlm058ZTnDYF3XOkuuZuBddwRmsCIC7SkvLOnge2hAfb5wf3aa7xnOOXrBCfdGzBkPadSKPyO2dDpt6-t7YmbUx798VgBYS4lMLs4przF2Wnb5DVEwkT6xTV4_Wn7p3RRfvRIfw4j71sK1753hlQuWy9uFiHe4_NlSWfldhVlzoE2wcD6-gIXiBdo1LA5ihMEq7TGHtcZUInajm7oDhf1EvqygUPVlO61Lxjt7KrSVfI9rS6uI_YqS7n-wBhvsoBr0PuKxRTloVd8bTCltxgL6yZYTe_jzCLMIYT7-SZsy_c6PXmqtPFm00]--></g></svg>