<svg xmlns="http://www.w3.org/2000/svg" xmlns:xlink="http://www.w3.org/1999/xlink" contentStyleType="text/css" data-diagram-type="SEQUENCE" height="598px" preserveAspectRatio="none" style="width:1087px;height:598px;background:#FFFFFF;" version="1.1" viewBox="0 0 1087 598" width="1087px" zoomAndPan="magnify"><title>Sequence Diagram - Add New Expenditure</title><defs/><g><text fill="#000000" font-family="sans-serif" font-size="14" font-weight="bold" lengthAdjust="spacing" textLength="334.8105" x="375.23" y="27.9951">Sequence Diagram - Add New Expenditure</text><g><title>User</title><rect fill="#000000" fill-opacity="0.00000" height="398.7266" width="8" x="19.9551" y="118.5938"/><line style="stroke:#181818;stroke-width:0.5;stroke-dasharray:5.0,5.0;" x1="23" x2="23" y1="118.5938" y2="517.3203"/></g><g><title>CLIHandler</title><rect fill="#000000" fill-opacity="0.00000" height="398.7266" width="8" x="409.4849" y="118.5938"/><line style="stroke:#181818;stroke-width:0.5;stroke-dasharray:5.0,5.0;" x1="413.0703" x2="413.0703" y1="118.5938" y2="517.3203"/></g><g><title>ExpenditureManager</title><rect fill="#000000" fill-opacity="0.00000" height="398.7266" width="8" x="607.4297" y="118.5938"/><line style="stroke:#181818;stroke-width:0.5;stroke-dasharray:5.0,5.0;" x1="611.2407" x2="611.2407" y1="118.5938" y2="517.3203"/></g><g><title>BankLedger</title><rect fill="#000000" fill-opacity="0.00000" height="398.7266" width="8" x="746.4785" y="118.5938"/><line style="stroke:#181818;stroke-width:0.5;stroke-dasharray:5.0,5.0;" x1="749.6187" x2="749.6187" y1="118.5938" y2="517.3203"/></g><g><title>AlertSystem</title><rect fill="#000000" fill-opacity="0.00000" height="398.7266" width="8" x="917.6934" y="118.5938"/><line style="stroke:#181818;stroke-width:0.5;stroke-dasharray:5.0,5.0;" x1="920.9277" x2="920.9277" y1="118.5938" y2="517.3203"/></g><g><title>FileManager</title><rect fill="#000000" fill-opacity="0.00000" height="398.7266" width="8" x="1027.3647" y="118.5938"/><line style="stroke:#181818;stroke-width:0.5;stroke-dasharray:5.0,5.0;" x1="1030.459" x2="1030.459" y1="118.5938" y2="517.3203"/></g><g class="participant participant-head" data-participant="User"><text fill="#000000" font-family="sans-serif" font-size="14" lengthAdjust="spacing" textLength="31.9102" x="5" y="115.292">User</text><ellipse cx="23.9551" cy="50.7969" fill="#E2E2F0" rx="8" ry="8" style="stroke:#181818;stroke-width:0.5;"/><path d="M23.9551,58.7969 L23.9551,85.7969 M10.9551,66.7969 L36.9551,66.7969 M23.9551,85.7969 L10.9551,100.7969 M23.9551,85.7969 L36.9551,100.7969" fill="none" style="stroke:#181818;stroke-width:0.5;"/></g><g class="participant participant-tail" data-participant="User"><text fill="#000000" font-family="sans-serif" font-size="14" lengthAdjust="spacing" textLength="31.9102" x="5" y="529.3154">User</text><ellipse cx="23.9551" cy="541.1172" fill="#E2E2F0" rx="8" ry="8" style="stroke:#181818;stroke-width:0.5;"/><path d="M23.9551,549.1172 L23.9551,576.1172 M10.9551,557.1172 L36.9551,557.1172 M23.9551,576.1172 L10.9551,591.1172 M23.9551,576.1172 L36.9551,591.1172" fill="none" style="stroke:#181818;stroke-width:0.5;"/></g><g class="participant participant-head" data-participant="CLIHandler"><rect fill="#E2E2F0" height="30.2969" rx="2.5" ry="2.5" style="stroke:#181818;stroke-width:0.5;" width="90.8291" x="368.0703" y="87.2969"/><text fill="#000000" font-family="sans-serif" font-size="14" lengthAdjust="spacing" textLength="76.8291" x="375.0703" y="107.292">CLIHandler</text></g><g class="participant participant-tail" data-participant="CLIHandler"><rect fill="#E2E2F0" height="30.2969" rx="2.5" ry="2.5" style="stroke:#181818;stroke-width:0.5;" width="90.8291" x="368.0703" y="516.3203"/><text fill="#000000" font-family="sans-serif" font-size="14" lengthAdjust="spacing" textLength="76.8291" x="375.0703" y="536.3154">CLIHandler</text></g><g class="participant participant-head" data-participant="ExpenditureManager"><rect fill="#E2E2F0" height="30.2969" rx="2.5" ry="2.5" style="stroke:#181818;stroke-width:0.5;" width="160.3779" x="531.2407" y="87.2969"/><text fill="#000000" font-family="sans-serif" font-size="14" lengthAdjust="spacing" textLength="146.3779" x="538.2407" y="107.292">ExpenditureManager</text></g><g class="participant participant-tail" data-participant="ExpenditureManager"><rect fill="#E2E2F0" height="30.2969" rx="2.5" ry="2.5" style="stroke:#181818;stroke-width:0.5;" width="160.3779" x="531.2407" y="516.3203"/><text fill="#000000" font-family="sans-serif" font-size="14" lengthAdjust="spacing" textLength="146.3779" x="538.2407" y="536.3154">ExpenditureManager</text></g><g class="participant participant-head" data-participant="BankLedger"><rect fill="#E2E2F0" height="30.2969" rx="2.5" ry="2.5" style="stroke:#181818;stroke-width:0.5;" width="97.7197" x="701.6187" y="87.2969"/><text fill="#000000" font-family="sans-serif" font-size="14" lengthAdjust="spacing" textLength="83.7197" x="708.6187" y="107.292">BankLedger</text></g><g class="participant participant-tail" data-participant="BankLedger"><rect fill="#E2E2F0" height="30.2969" rx="2.5" ry="2.5" style="stroke:#181818;stroke-width:0.5;" width="97.7197" x="701.6187" y="516.3203"/><text fill="#000000" font-family="sans-serif" font-size="14" lengthAdjust="spacing" textLength="83.7197" x="708.6187" y="536.3154">BankLedger</text></g><g class="participant participant-head" data-participant="AlertSystem"><rect fill="#E2E2F0" height="30.2969" rx="2.5" ry="2.5" style="stroke:#181818;stroke-width:0.5;" width="99.5313" x="871.9277" y="87.2969"/><text fill="#000000" font-family="sans-serif" font-size="14" lengthAdjust="spacing" textLength="85.5313" x="878.9277" y="107.292">AlertSystem</text></g><g class="participant participant-tail" data-participant="AlertSystem"><rect fill="#E2E2F0" height="30.2969" rx="2.5" ry="2.5" style="stroke:#181818;stroke-width:0.5;" width="99.5313" x="871.9277" y="516.3203"/><text fill="#000000" font-family="sans-serif" font-size="14" lengthAdjust="spacing" textLength="85.5313" x="878.9277" y="536.3154">AlertSystem</text></g><g class="participant participant-head" data-participant="FileManager"><rect fill="#E2E2F0" height="30.2969" rx="2.5" ry="2.5" style="stroke:#181818;stroke-width:0.5;" width="99.8115" x="981.459" y="87.2969"/><text fill="#000000" font-family="sans-serif" font-size="14" lengthAdjust="spacing" textLength="85.8115" x="988.459" y="107.292">FileManager</text></g><g class="participant participant-tail" data-participant="FileManager"><rect fill="#E2E2F0" height="30.2969" rx="2.5" ry="2.5" style="stroke:#181818;stroke-width:0.5;" width="99.8115" x="981.459" y="516.3203"/><text fill="#000000" font-family="sans-serif" font-size="14" lengthAdjust="spacing" textLength="85.8115" x="988.459" y="536.3154">FileManager</text></g><g class="message" data-participant-1="User" data-participant-2="CLIHandler"><polygon fill="#181818" points="401.4849,145.7266,411.4849,149.7266,401.4849,153.7266,405.4849,149.7266" style="stroke:#181818;stroke-width:1;"/><line style="stroke:#181818;stroke-width:1;" x1="23.9551" x2="407.4849" y1="149.7266" y2="149.7266"/><text fill="#000000" font-family="sans-serif" font-size="13" lengthAdjust="spacing" textLength="164.6646" x="30.9551" y="144.6606">Select "Add Expenditure"</text></g><g class="message" data-participant-1="CLIHandler" data-participant-2="User"><polygon fill="#181818" points="34.9551,174.8594,24.9551,178.8594,34.9551,182.8594,30.9551,178.8594" style="stroke:#181818;stroke-width:1;"/><line style="stroke:#181818;stroke-width:1;" x1="28.9551" x2="412.4849" y1="178.8594" y2="178.8594"/><text fill="#000000" font-family="sans-serif" font-size="13" lengthAdjust="spacing" textLength="175.6841" x="40.9551" y="173.7935">Prompt for expense details</text></g><g class="message" data-participant-1="User" data-participant-2="CLIHandler"><polygon fill="#181818" points="401.4849,203.9922,411.4849,207.9922,401.4849,211.9922,405.4849,207.9922" style="stroke:#181818;stroke-width:1;"/><line style="stroke:#181818;stroke-width:1;" x1="23.9551" x2="407.4849" y1="207.9922" y2="207.9922"/><text fill="#000000" font-family="sans-serif" font-size="13" lengthAdjust="spacing" textLength="365.5298" x="30.9551" y="202.9263">Provide code, amount, date, phase, category, accountId</text></g><g class="message" data-participant-1="CLIHandler" data-participant-2="ExpenditureManager"><polygon fill="#181818" points="599.4297,233.125,609.4297,237.125,599.4297,241.125,603.4297,237.125" style="stroke:#181818;stroke-width:1;"/><line style="stroke:#181818;stroke-width:1;" x1="413.4849" x2="605.4297" y1="237.125" y2="237.125"/><text fill="#000000" font-family="sans-serif" font-size="13" lengthAdjust="spacing" textLength="173.9448" x="420.4849" y="232.0591">createExpenditure(details)</text></g><g class="message" data-participant-1="ExpenditureManager" data-participant-2="FileManager"><polygon fill="#181818" points="1019.3647,262.2578,1029.3647,266.2578,1019.3647,270.2578,1023.3647,266.2578" style="stroke:#181818;stroke-width:1;"/><line style="stroke:#181818;stroke-width:1;" x1="611.4297" x2="1025.3647" y1="266.2578" y2="266.2578"/><text fill="#000000" font-family="sans-serif" font-size="13" lengthAdjust="spacing" textLength="186.6846" x="618.4297" y="261.1919">saveToFile(expenditures.txt)</text></g><g class="message" data-participant-1="ExpenditureManager" data-participant-2="CLIHandler"><polygon fill="#181818" points="424.4849,291.3906,414.4849,295.3906,424.4849,299.3906,420.4849,295.3906" style="stroke:#181818;stroke-width:1;"/><line style="stroke:#181818;stroke-width:1;stroke-dasharray:2.0,2.0;" x1="418.4849" x2="610.4297" y1="295.3906" y2="295.3906"/><text fill="#000000" font-family="sans-serif" font-size="13" lengthAdjust="spacing" textLength="95.2466" x="430.4849" y="290.3247">return success</text></g><g class="message" data-participant-1="CLIHandler" data-participant-2="BankLedger"><polygon fill="#181818" points="738.4785,320.5234,748.4785,324.5234,738.4785,328.5234,742.4785,324.5234" style="stroke:#181818;stroke-width:1;"/><line style="stroke:#181818;stroke-width:1;" x1="413.4849" x2="744.4785" y1="324.5234" y2="324.5234"/><text fill="#000000" font-family="sans-serif" font-size="13" lengthAdjust="spacing" textLength="231.2007" x="420.4849" y="319.4575">logExpenditure(accountId, amount)</text></g><g class="message" data-participant-1="BankLedger" data-participant-2="FileManager"><polygon fill="#181818" points="1019.3647,349.6563,1029.3647,353.6563,1019.3647,357.6563,1023.3647,353.6563" style="stroke:#181818;stroke-width:1;"/><line style="stroke:#181818;stroke-width:1;" x1="750.4785" x2="1025.3647" y1="353.6563" y2="353.6563"/><text fill="#000000" font-family="sans-serif" font-size="13" lengthAdjust="spacing" textLength="130.5205" x="757.4785" y="348.5903">update accounts.txt</text></g><g class="message" data-participant-1="BankLedger" data-participant-2="CLIHandler"><polygon fill="#181818" points="424.4849,378.7891,414.4849,382.7891,424.4849,386.7891,420.4849,382.7891" style="stroke:#181818;stroke-width:1;"/><line style="stroke:#181818;stroke-width:1;stroke-dasharray:2.0,2.0;" x1="418.4849" x2="749.4785" y1="382.7891" y2="382.7891"/><text fill="#000000" font-family="sans-serif" font-size="13" lengthAdjust="spacing" textLength="109.3701" x="430.4849" y="377.7231">balance updated</text></g><g class="message" data-participant-1="CLIHandler" data-participant-2="AlertSystem"><polygon fill="#181818" points="909.6934,407.9219,919.6934,411.9219,909.6934,415.9219,913.6934,411.9219" style="stroke:#181818;stroke-width:1;"/><line style="stroke:#181818;stroke-width:1;" x1="413.4849" x2="915.6934" y1="411.9219" y2="411.9219"/><text fill="#000000" font-family="sans-serif" font-size="13" lengthAdjust="spacing" textLength="176.8901" x="420.4849" y="406.856">checkLowFunds(accountId)</text></g><g class="message" data-participant-1="AlertSystem" data-participant-2="BankLedger"><polygon fill="#181818" points="761.4785,437.0547,751.4785,441.0547,761.4785,445.0547,757.4785,441.0547" style="stroke:#181818;stroke-width:1;"/><line style="stroke:#181818;stroke-width:1;" x1="755.4785" x2="920.6934" y1="441.0547" y2="441.0547"/><text fill="#000000" font-family="sans-serif" font-size="13" lengthAdjust="spacing" textLength="147.2148" x="767.4785" y="435.9888">getBalance(accountId)</text></g><g class="message" data-participant-1="AlertSystem" data-participant-2="CLIHandler"><polygon fill="#181818" points="424.4849,466.1875,414.4849,470.1875,424.4849,474.1875,420.4849,470.1875" style="stroke:#181818;stroke-width:1;"/><line style="stroke:#181818;stroke-width:1;stroke-dasharray:2.0,2.0;" x1="418.4849" x2="920.6934" y1="470.1875" y2="470.1875"/><text fill="#000000" font-family="sans-serif" font-size="13" lengthAdjust="spacing" textLength="157.7139" x="430.4849" y="465.1216">notify if below threshold</text></g><g class="message" data-participant-1="CLIHandler" data-participant-2="User"><polygon fill="#181818" points="34.9551,495.3203,24.9551,499.3203,34.9551,503.3203,30.9551,499.3203" style="stroke:#181818;stroke-width:1;"/><line style="stroke:#181818;stroke-width:1;" x1="28.9551" x2="412.4849" y1="499.3203" y2="499.3203"/><text fill="#000000" font-family="sans-serif" font-size="13" lengthAdjust="spacing" textLength="257.6768" x="40.9551" y="494.2544">Show "Expenditure added successfully"</text></g><!--SRC=[TLBBRW8n3BpdAonE844_W4CbQ8kAHAjAj1_W9cOt8YJRnClZx-jj2uH0JwlOC-FnhDco8rZILqjU4pnQh29kO0GJO-2LTl2qRyWRosqafL1pYF2HAAe68rjj6_GC3ulvCthZYd96VK6FLT6Uebylo9JbYSZmyf2ODXVrcNKd6TLPWD5zDXd6ieKZpT3hh6UpUof32UU7EuQt63ODmqeMeWwS20mnMfTkgmj-Qms13eQ6W9lGUXw2GPPNKsEIZvP75U91sbft_RbHnV3hJ4HQHn9crkh_EHce6tXHoR8GUi8jlOUkrgSpFDtndcyBbAj5ahQ7r6fDAPMMp_z9e2vKkS_JdiT41Yg3NpbjcowlOpe_3Y_mfR5FTDYTvI_lAipiLBeKQzBhHTZDMc_IsTb0vR1odufu-ZlaNqPfoWUsgmFO5NoI2plWMiAkWxkoztTeorf0lImrG6F87EDUjSuTUjy0]--></g></svg>